<?xml version="1.0" standalone="no"?>
<!DOCTYPE svg PUBLIC "-//W3C//DTD SVG 20010904//EN"
 "http://www.w3.org/TR/2001/REC-SVG-20010904/DTD/svg10.dtd">
<svg version="1.0" xmlns="http://www.w3.org/2000/svg"
 width="720.000000pt" height="720.000000pt" viewBox="0 0 720.000000 720.000000"
 preserveAspectRatio="xMidYMid meet">
<metadata>
Created by potrace 1.11, written by Peter Selinger 2001-2013
</metadata>
<g transform="translate(0.000000,720.000000) scale(0.100000,-0.100000)"
fill="#000000" stroke="none">
<path d="M3365 7183 c-362 -29 -626 -82 -931 -187 -1282 -440 -2213 -1580
-2389 -2923 -93 -714 26 -1430 346 -2073 684 -1376 2160 -2164 3681 -1965
1413 185 2590 1199 2983 2571 249 866 165 1787 -236 2594 -564 1134 -1672
1882 -2933 1980 -118 9 -425 11 -521 3z m487 -68 c69 -3 137 -8 150 -10 12 -2
46 -6 73 -9 465 -52 968 -234 1405 -508 117 -74 270 -187 270 -200 0 -5 4 -7
9 -3 5 3 17 -5 26 -17 8 -13 19 -23 23 -23 4 0 23 -16 41 -35 18 -19 30 -28
26 -20 -4 8 7 -1 23 -19 30 -35 33 -46 19 -68 -5 -7 7 -7 40 3 70 21 90 18
135 -24 l41 -38 -64 3 -64 3 42 -19 c45 -21 83 -70 83 -109 0 -31 -25 -77 -52
-96 -66 -47 -168 10 -168 94 0 52 13 76 53 100 18 11 26 20 19 20 -7 0 -33
-19 -57 -41 -49 -45 -54 -44 -29 2 19 37 12 47 -20 29 -79 -42 -61 -216 24
-234 93 -18 170 1 228 57 l34 32 -16 -39 c-9 -22 -14 -41 -12 -44 11 -10 37 9
56 40 23 39 27 21 4 -23 -15 -29 -14 -30 4 -20 13 7 23 7 32 -2 10 -10 11 -9
5 3 -8 16 61 -60 83 -91 15 -21 3 -29 -169 -126 l-99 -55 -137 142 c-279 290
-535 482 -867 651 -336 172 -659 272 -1051 325 -182 25 -598 25 -780 0 -776
-106 -1426 -442 -1952 -1011 l-95 -102 -111 59 c-62 33 -116 63 -121 68 -5 5
3 25 20 47 16 21 28 42 26 46 -1 5 2 6 7 3 5 -4 12 -2 16 4 7 12 38 8 57 -6
37 -29 35 -22 -4 17 -44 44 -68 99 -68 155 0 23 16 45 78 106 42 41 88 78 102
81 23 6 55 0 119 -19 17 -5 22 -4 17 4 -11 18 40 77 123 145 42 34 88 73 103
88 34 34 207 151 322 218 112 66 350 185 424 213 31 12 66 27 77 34 23 14 279
92 400 123 106 26 334 68 415 76 36 4 94 10 130 14 36 5 119 9 185 10 66 1
122 4 124 7 3 2 30 2 60 -1 31 -2 113 -7 183 -10z m-140 -392 c-62 -2 -161 -2
-220 0 -59 1 -8 3 113 3 121 0 169 -2 107 -3z m-374 -10 c-10 -2 -28 -2 -40 0
-13 2 -5 4 17 4 22 1 32 -1 23 -4z m585 0 c-13 -2 -35 -2 -50 0 -16 2 -5 4 22
4 28 0 40 -2 28 -4z m-685 -10 c-10 -2 -26 -2 -35 0 -10 3 -2 5 17 5 19 0 27
-2 18 -5z m770 0 c-10 -2 -28 -2 -40 0 -13 2 -5 4 17 4 22 1 32 -1 23 -4z
m-845 -10 c-7 -2 -21 -2 -30 0 -10 3 -4 5 12 5 17 0 24 -2 18 -5z m915 0 c-10
-2 -26 -2 -35 0 -10 3 -2 5 17 5 19 0 27 -2 18 -5z m-985 -10 c-7 -2 -19 -2
-25 0 -7 3 -2 5 12 5 14 0 19 -2 13 -5z m1050 0 c-7 -2 -21 -2 -30 0 -10 3 -4
5 12 5 17 0 24 -2 18 -5z m-1106 -9 c-3 -3 -12 -4 -19 -1 -8 3 -5 6 6 6 11 1
17 -2 13 -5z m1156 -1 c-7 -2 -19 -2 -25 0 -7 3 -2 5 12 5 14 0 19 -2 13 -5z
m-1206 -9 c-3 -3 -12 -4 -19 -1 -8 3 -5 6 6 6 11 1 17 -2 13 -5z m1256 -1 c-7
-2 -19 -2 -25 0 -7 3 -2 5 12 5 14 0 19 -2 13 -5z m50 -10 c-7 -2 -19 -2 -25
0 -7 3 -2 5 12 5 14 0 19 -2 13 -5z m-1396 -9 c-3 -3 -12 -4 -19 -1 -8 3 -5 6
6 6 11 1 17 -2 13 -5z m1440 0 c-3 -3 -12 -4 -19 -1 -8 3 -5 6 6 6 11 1 17 -2
13 -5z m-1480 -10 c-3 -3 -12 -4 -19 -1 -8 3 -5 6 6 6 11 1 17 -2 13 -5z
m1520 0 c-3 -3 -12 -4 -19 -1 -8 3 -5 6 6 6 11 1 17 -2 13 -5z m40 -10 c-3 -3
-12 -4 -19 -1 -8 3 -5 6 6 6 11 1 17 -2 13 -5z m73 -19 c19 -7 28 -13 20 -13
-8 0 -31 6 -50 13 -19 7 -28 13 -20 13 8 0 31 -6 50 -13z m104 -31 c26 -9 45
-18 43 -20 -2 -2 -28 5 -58 15 -30 11 -49 20 -43 20 6 1 32 -6 58 -15z m116
-44 c8 -5 11 -10 5 -10 -5 0 -17 5 -25 10 -8 5 -10 10 -5 10 6 0 17 -5 25 -10z
m50 -20 c8 -5 11 -10 5 -10 -5 0 -17 5 -25 10 -8 5 -10 10 -5 10 6 0 17 -5 25
-10z m50 -20 c8 -5 11 -10 5 -10 -5 0 -17 5 -25 10 -8 5 -10 10 -5 10 6 0 17
-5 25 -10z m70 -30 c19 -11 31 -19 25 -19 -5 0 -26 8 -45 19 -19 11 -30 19
-25 19 6 0 26 -8 45 -19z m110 -50 c33 -17 60 -33 60 -35 0 -5 -119 52 -129
61 -13 12 16 1 69 -26z m278 -158 c28 -19 52 -37 52 -40 0 -2 -12 4 -27 14
-16 10 -64 40 -108 66 -44 26 -87 52 -95 58 -31 23 127 -65 178 -98z m280
-201 c53 -43 104 -86 112 -96 8 -10 -19 10 -60 44 -41 35 -112 90 -157 123
-46 33 -83 62 -83 65 0 7 89 -57 188 -136z m252 -226 c63 -63 112 -115 110
-115 -3 0 -57 52 -120 115 -63 63 -112 115 -110 115 3 0 57 -52 120 -115z
m-849 -232 c13 -16 12 -17 -3 -4 -10 7 -18 15 -18 17 0 8 8 3 21 -13z m53 -42
c-2 -3 -12 3 -22 13 -16 17 -16 18 5 5 12 -7 20 -15 17 -18z m110 -80 c-3 -3
-15 6 -27 18 l-22 24 27 -19 c14 -10 24 -21 22 -23z m1472 -126 c-11 -8 -14
-15 -7 -15 7 0 9 -4 6 -10 -3 -5 -1 -10 6 -10 8 0 7 -5 -2 -17 -10 -11 -10
-14 -1 -9 6 4 12 4 13 -1 4 -43 7 -54 12 -60 4 -3 -1 -16 -10 -27 -17 -20 -17
-20 0 -7 10 8 17 9 17 3 0 -6 -4 -13 -9 -16 -5 -4 -8 -17 -7 -31 2 -14 -5 -32
-15 -41 -11 -10 -19 -27 -19 -38 0 -17 -2 -18 -10 -6 -9 14 -15 7 -11 -14 1
-5 -6 -18 -16 -30 -16 -19 -16 -19 0 -7 10 8 17 9 17 3 0 -6 -7 -15 -15 -19
-15 -9 -14 -18 10 -88 3 -11 -2 -5 -13 14 -27 48 -36 22 -12 -34 39 -90 19
-59 -44 70 -35 72 -86 170 -114 218 -34 59 -47 89 -39 92 29 11 272 94 277 94
3 0 -4 -6 -14 -14z m-5764 -43 c77 -24 85 -29 77 -45 -6 -9 -15 -14 -21 -11
-7 4 -8 2 -4 -4 4 -7 -11 -42 -33 -79 -21 -38 -48 -86 -60 -108 -11 -22 -20
-35 -20 -30 -1 6 17 43 39 83 45 82 46 86 26 79 -10 -4 -13 -1 -9 9 4 12 8 12
22 2 11 -8 10 -5 -3 10 -13 15 -15 22 -6 22 7 0 10 3 6 7 -4 5 -14 0 -21 -10
-8 -12 -15 -14 -20 -8 -3 6 0 11 7 11 8 1 4 8 -9 19 -12 10 -20 27 -19 37 2
13 -6 22 -28 31 -58 22 -12 13 76 -15z m4660 -92 c-3 -86 -6 -101 -22 -110
-59 -32 -468 -107 -755 -139 -303 -34 -809 -54 -904 -35 -27 6 -31 11 -31 40
0 38 -26 33 295 64 389 38 788 110 1137 207 223 61 258 70 273 72 6 1 9 -36 7
-99z m-3480 35 c440 -113 820 -179 1258 -220 268 -25 250 -20 250 -62 l0 -36
-287 6 c-292 6 -475 20 -739 57 -262 37 -573 98 -644 126 l-35 14 0 80 c0 55
4 80 12 80 6 0 89 -20 185 -45z m4558 -460 c0 -5 -5 -3 -10 5 -5 8 -10 20 -10
25 0 6 5 3 10 -5 5 -8 10 -19 10 -25z m-711 -332 c1 -19 8 -36 18 -42 12 -6
18 -23 18 -53 2 -63 4 -68 16 -65 16 3 36 -56 21 -61 -19 -6 -14 -43 7 -49 21
-5 39 -65 21 -71 -16 -6 -12 -27 11 -53 16 -19 19 -32 15 -63 -4 -22 -2 -44 4
-51 6 -8 14 -40 16 -72 4 -43 3 -54 -5 -43 -10 13 -12 13 -20 0 -8 -12 -12 -9
-20 12 -8 21 -14 25 -36 20 -23 -4 -26 -9 -23 -33 3 -16 1 -29 -3 -29 -4 0
-14 -3 -22 -6 -10 -3 -17 3 -21 20 -5 19 -13 26 -31 26 -20 0 -25 -5 -25 -25
0 -20 -5 -25 -25 -25 -16 0 -25 6 -25 16 0 11 -8 14 -27 12 -20 -2 -28 -8 -27
-20 1 -13 -6 -18 -27 -18 -16 0 -29 5 -29 10 0 15 -27 12 -44 -5 -8 -9 -30
-15 -48 -15 -18 0 -125 -5 -238 -13 l-205 -13 -9 23 c-7 15 -18 23 -34 23 -21
0 -24 -4 -20 -25 5 -21 2 -25 -20 -25 -14 0 -30 7 -37 16 -13 18 -60 11 -49
-7 3 -6 -10 -10 -33 -9 -21 0 -69 -2 -108 -4 -199 -15 -245 -15 -245 3 0 28
-15 41 -39 34 -18 -4 -22 -11 -18 -29 2 -13 1 -24 -3 -24 -9 0 -43 141 -36
147 2 3 7 -9 11 -26 6 -27 8 -29 34 -20 23 8 27 15 23 34 -3 19 -11 25 -31 25
-19 0 -22 3 -12 9 8 5 11 16 8 25 -4 9 -2 16 3 16 6 0 10 7 10 16 0 8 5 12 11
9 6 -4 13 3 16 16 l6 23 9 -23 c5 -16 14 -21 30 -19 26 3 37 41 18 63 -9 11
-7 12 8 9 10 -3 24 2 31 10 8 9 17 16 22 16 4 0 27 13 51 29 24 16 52 31 63
33 12 2 19 10 17 21 -2 11 2 15 13 11 11 -4 15 0 16 17 l0 24 10 -25 c13 -32
13 -32 41 -21 21 8 25 15 20 37 -3 18 -1 25 6 20 6 -4 16 3 22 14 6 11 17 20
25 20 7 0 49 18 94 41 60 31 78 45 74 58 -4 12 -2 13 4 3 11 -15 63 0 63 18 0
6 4 9 9 5 6 -3 14 3 20 12 10 17 10 17 11 -1 0 -12 5 -16 16 -12 9 3 23 6 31
6 12 0 14 7 10 29 -5 26 -4 28 15 23 14 -3 19 -1 14 6 -4 7 -5 12 -1 12 3 0
10 -12 15 -26 7 -18 15 -24 26 -20 9 3 20 6 25 6 20 0 9 51 -13 61 l-23 10 22
-5 c14 -2 65 17 132 50 61 30 115 54 121 54 6 0 9 4 5 9 -3 5 5 12 17 16 81
21 132 42 142 58 9 16 17 6 53 -70 23 -48 42 -102 42 -120z m-4475 -4 c-2 -40
2 -68 11 -83 8 -11 17 -40 21 -64 5 -33 12 -44 30 -48 16 -4 27 -16 32 -36 4
-16 11 -29 15 -29 4 1 16 1 26 1 14 0 21 8 24 28 4 26 4 26 3 -3 -1 -22 -7
-31 -24 -35 -34 -8 -26 -25 10 -23 22 1 27 -1 17 -8 -8 -5 -22 -9 -33 -9 -12
0 -16 -5 -12 -16 3 -9 6 -23 6 -31 0 -11 8 -14 34 -11 19 2 32 0 30 -4 -3 -4
-14 -8 -24 -8 -12 0 -17 -5 -14 -14 3 -8 18 -13 37 -12 28 1 32 -2 33 -24 1
-22 0 -22 -3 -2 -4 23 -13 26 -49 16 -16 -4 -19 -11 -16 -36 4 -26 8 -29 33
-26 15 3 26 1 23 -4 -3 -5 -21 -7 -39 -6 -30 2 -34 5 -29 24 3 12 1 25 -4 28
-6 3 -10 -6 -11 -22 -1 -58 -2 -59 -27 -54 -13 2 -32 1 -41 -3 -10 -5 -46 -9
-80 -10 -35 -1 -66 -5 -70 -8 -3 -4 -11 -7 -17 -7 -6 0 -5 4 2 9 21 13 4 64
-19 58 -15 -4 -19 0 -19 24 0 16 5 29 11 29 6 0 8 7 5 15 -8 22 14 116 25 109
5 -3 18 -2 30 1 26 9 24 61 -3 59 -23 -2 -23 0 7 94 18 58 30 81 44 85 16 4
18 10 12 33 -6 22 5 84 15 84 0 0 0 -27 -2 -61z m2381 -14 c308 -54 559 -267
659 -562 23 -68 44 -163 33 -153 -3 3 -13 34 -22 70 -68 262 -259 480 -507
579 -273 110 -589 67 -825 -111 -38 -28 -57 -38 -43 -23 41 44 169 123 252
155 147 57 298 72 453 45z m-2327 -39 c12 -3 12 -4 -3 -3 -11 1 -20 9 -21 17
0 8 1 10 3 3 2 -6 12 -14 21 -17z m55 -33 c-7 -2 -19 -2 -25 0 -7 3 -2 5 12 5
14 0 19 -2 13 -5z m-43 -56 c0 -15 6 -18 33 -13 l32 6 -28 -11 c-33 -13 -42
-6 -51 36 -5 22 -4 26 4 15 5 -8 10 -23 10 -33z m67 11 c-3 -7 -5 -2 -5 12 0
14 2 19 5 13 2 -7 2 -19 0 -25z m3540 -24 c-3 -3 -12 -4 -19 -1 -8 3 -5 6 6 6
11 1 17 -2 13 -5z m-3544 -41 c-7 -2 -19 -2 -25 0 -7 3 -2 5 12 5 14 0 19 -2
13 -5z m64 -15 c-3 -8 -6 -5 -6 6 -1 11 2 17 5 13 3 -3 4 -12 1 -19z m60 -34
c-3 -3 -12 -4 -19 -1 -8 3 -5 6 6 6 11 1 17 -2 13 -5z m0 -40 c-3 -3 -12 -4
-19 -1 -8 3 -5 6 6 6 11 1 17 -2 13 -5z m-30 -36 c-3 -8 -6 -5 -6 6 -1 11 2
17 5 13 3 -3 4 -12 1 -19z m-30 -20 c-3 -7 -5 -2 -5 12 0 14 2 19 5 13 2 -7 2
-19 0 -25z m80 -14 c-3 -3 -12 -4 -19 -1 -8 3 -5 6 6 6 11 1 17 -2 13 -5z m50
-44 c3 -10 2 -11 -4 -4 -4 6 -15 14 -23 17 -11 5 -9 6 4 4 11 -1 21 -9 23 -17z
m-56 1 c-18 -12 -7 -58 17 -64 16 -4 16 -5 -1 -6 -20 -1 -42 40 -34 63 4 9 12
16 19 16 10 0 10 -2 -1 -9z m96 -23 c-3 -8 -6 -5 -6 6 -1 11 2 17 5 13 3 -3 4
-12 1 -19z m-30 -20 c-3 -8 -6 -5 -6 6 -1 11 2 17 5 13 3 -3 4 -12 1 -19z m-4
-55 c-7 -2 -19 -2 -25 0 -7 3 -2 5 12 5 14 0 19 -2 13 -5z m-84 -17 c-2 -2
-20 -6 -39 -10 -25 -4 -31 -3 -20 4 14 9 69 15 59 6z m38 -18 c-3 -8 -6 -5 -6
6 -1 11 2 17 5 13 3 -3 4 -12 1 -19z m-140 -18 c4 -12 3 -13 -5 -1 -13 19 -62
6 -63 -17 0 -13 -2 -13 -6 -3 -7 18 26 43 51 39 11 -2 21 -10 23 -18z m110 -2
c-3 -8 -6 -5 -6 6 -1 11 2 17 5 13 3 -3 4 -12 1 -19z m-380 6 c-3 -3 -12 -4
-19 -1 -8 3 -5 6 6 6 11 1 17 -2 13 -5z m310 -26 c-3 -7 -5 -2 -5 12 0 14 2
19 5 13 2 -7 2 -19 0 -25z m260 26 c-3 -3 -12 -4 -19 -1 -8 3 -5 6 6 6 11 1
17 -2 13 -5z m1888 -60 c36 -13 82 -54 109 -94 l26 -40 -240 0 -241 0 26 27
c14 15 25 31 25 35 0 3 17 20 39 37 66 53 172 67 256 35z m2268 -41 c-7 -2
-21 -2 -30 0 -10 3 -4 5 12 5 17 0 24 -2 18 -5z m-4250 -30 c-13 -2 -33 -2
-45 0 -13 2 -3 4 22 4 25 0 35 -2 23 -4z m130 -10 c-13 -2 -33 -2 -45 0 -13 2
-3 4 22 4 25 0 35 -2 23 -4z m-358 -23 c496 -24 662 -31 1045 -44 223 -8 518
-18 655 -22 138 -3 268 -10 290 -14 35 -6 29 -8 -50 -15 -112 -10 -1055 1
-1300 15 -412 23 -793 54 -942 76 -64 9 -42 23 30 18 34 -2 157 -8 272 -14z
m538 13 c-7 -2 -19 -2 -25 0 -7 3 -2 5 12 5 14 0 19 -2 13 -5z m3966 2 c-13
-12 -605 -61 -1034 -85 -480 -27 -1349 -33 -1250 -9 17 4 206 12 420 18 497
14 1072 38 1480 61 387 21 390 21 384 15z m-759 -275 c85 -5 44 -6 -130 -3
-140 3 -318 9 -395 14 -98 5 -59 6 130 2 149 -3 326 -9 395 -13z m-1420 -7 c0
-12 -70 -71 -108 -89 -26 -14 -59 -19 -112 -19 -63 0 -82 4 -120 27 -25 14
-58 40 -74 57 l-30 31 222 0 c122 0 222 -3 222 -7z m1698 -10 c-15 -2 -42 -2
-60 0 -18 2 -6 4 27 4 33 0 48 -2 33 -4z m-960 -29 c2 -23 0 -24 -14 -10 -21
22 -26 20 -20 -6 5 -20 5 -20 -6 2 -7 14 -17 28 -23 32 -5 4 6 8 25 8 31 0 36
-3 38 -26z m109 11 c0 -11 -4 -12 -11 -5 -15 15 -24 12 -28 -7 -3 -15 -5 -14
-10 5 -5 19 -2 22 21 22 18 0 28 -5 28 -15z m103 11 c0 -9 -40 -13 -46 -5 -3
5 6 9 20 9 14 0 26 -2 26 -4z m-2116 -324 c22 -1 46 4 55 11 12 9 13 9 7 -1
-5 -8 2 -15 19 -22 15 -6 30 -22 36 -38 8 -24 15 -28 34 -24 18 3 31 -4 51
-27 14 -17 29 -30 32 -28 4 2 15 -4 25 -15 9 -10 14 -18 10 -18 -4 0 1 -6 11
-13 16 -12 17 -15 4 -20 -11 -3 -14 -14 -11 -31 3 -14 8 -26 12 -26 25 1 51
15 52 29 0 11 3 10 9 -5 5 -12 17 -28 28 -35 10 -8 22 -24 26 -36 4 -13 15
-23 24 -23 10 0 23 -9 29 -19 10 -17 9 -20 -12 -25 -20 -5 -23 -10 -16 -29 5
-14 17 -22 32 -22 21 0 24 4 21 34 l-3 34 21 -26 c12 -15 28 -27 36 -27 8 0
12 -4 9 -10 -6 -10 5 -13 35 -11 8 0 5 -5 -8 -11 -19 -9 -22 -17 -17 -37 8
-32 5 -30 38 -24 16 3 27 12 27 22 0 11 3 12 8 4 4 -7 23 -19 42 -27 19 -8 29
-15 23 -16 -15 0 -17 -28 -4 -48 5 -9 17 -11 34 -7 23 6 26 11 21 34 l-5 26
15 -25 c13 -23 15 -23 22 -7 6 17 8 16 18 -5 8 -15 21 -23 36 -23 33 0 50 -12
50 -36 0 -10 6 -19 14 -19 9 0 12 9 10 28 -4 27 -3 27 4 2 7 -20 14 -25 38
-23 l29 3 -30 -14 c-31 -15 -29 -17 19 -19 16 -1 31 -9 33 -17 4 -12 3 -13 -5
-1 -7 9 -19 11 -37 7 -23 -6 -26 -10 -20 -34 8 -33 5 -31 37 -25 15 3 29 13
31 22 4 14 5 14 6 -2 1 -22 -41 -39 -83 -34 -22 2 -32 10 -36 26 -5 24 -10 26
-41 18 -15 -4 -20 -12 -17 -29 3 -22 7 -23 118 -29 l115 -5 -136 -2 -137 -2
-6 24 c-5 21 -10 23 -33 17 -17 -5 -27 -14 -27 -24 2 -19 -40 -24 -51 -7 -4 7
-14 6 -28 -2 -24 -14 -228 -28 -220 -15 2 4 11 7 19 7 16 0 18 18 5 39 -6 9
-18 11 -35 7 -23 -6 -24 -9 -16 -32 14 -35 14 -34 -20 -34 -23 0 -30 4 -30 20
0 12 -7 20 -17 20 -25 0 -47 -16 -39 -28 8 -13 -35 -24 -49 -12 -7 6 -28 4
-56 -4 -24 -7 -84 -16 -134 -20 -49 -4 -100 -10 -112 -13 -18 -4 -23 -1 -23
15 0 25 -14 35 -39 27 -13 -4 -17 -12 -13 -30 4 -21 1 -25 -21 -25 -14 0 -30
7 -34 15 -10 18 -56 8 -49 -10 3 -9 -9 -14 -42 -17 -26 -3 -132 -19 -235 -38
-193 -34 -196 -34 -209 2 -2 4 -13 5 -26 1 -19 -4 -22 -11 -18 -29 6 -21 3
-24 -23 -24 -16 0 -31 5 -33 11 -5 16 -48 2 -48 -16 0 -15 -42 -28 -50 -15 -3
5 -18 3 -34 -5 -16 -8 -29 -15 -31 -15 -1 0 -26 34 -55 76 -45 66 -50 78 -36
86 23 13 3 48 -26 45 -18 -2 -32 18 -84 118 -35 66 -64 127 -64 135 0 8 -12
37 -26 64 -17 31 -22 51 -15 55 13 9 2 51 -14 51 -6 0 -17 12 -24 26 -10 22
-9 28 4 38 21 15 9 55 -15 49 -24 -6 -35 46 -13 62 20 15 8 55 -17 55 -11 0
-19 9 -22 25 l-5 25 91 -1 c50 0 100 2 111 6 15 5 17 5 6 -3 -12 -8 -13 -16
-4 -35 9 -19 17 -23 38 -19 22 4 25 8 20 31 -5 23 -2 26 20 26 14 0 25 -5 25
-12 0 -6 4 -14 8 -17 13 -8 52 5 52 18 0 8 38 11 127 10 72 -1 133 2 140 8 7
5 18 8 25 5 8 -3 6 -6 -6 -6 -15 -1 -17 -6 -11 -28 9 -36 8 -35 39 -27 24 6
26 10 21 38 -3 17 -3 26 2 20 4 -6 16 -10 26 -8 9 1 17 -4 17 -12 0 -8 6 -14
14 -14 29 0 46 13 46 34 0 12 3 16 8 10 10 -15 82 -16 101 -1 12 9 13 9 7 0
-9 -17 3 -16 34 2 29 17 52 20 30 4 -11 -8 3 -9 50 -4 132 13 140 13 146 -12
7 -25 8 -26 42 -16 20 5 23 11 19 37 -3 17 -3 25 0 19 2 -7 11 -13 18 -13 7 0
16 6 18 13 3 7 6 6 6 -5 1 -23 15 -30 46 -22 20 5 24 11 20 28 -4 12 -3 16 2
10 4 -6 26 -11 47 -12z m3229 -54 c19 2 27 9 27 22 0 13 5 17 15 14 9 -4 15 0
16 7 0 8 4 2 9 -13 5 -17 3 -48 -5 -80 -7 -29 -13 -43 -14 -30 -1 18 -7 22
-31 22 -30 0 -36 -11 -24 -43 3 -9 14 -12 30 -9 23 4 24 2 18 -24 -4 -16 -10
-33 -14 -39 -4 -5 -11 -28 -15 -50 -10 -57 -22 -75 -50 -75 -20 0 -25 -5 -25
-25 0 -16 6 -25 16 -25 21 0 15 -18 -62 -177 -49 -103 -68 -133 -83 -133 -14
0 -18 -5 -14 -21 9 -32 -27 -89 -60 -96 -25 -5 -28 -9 -23 -34 7 -36 -26 -79
-60 -79 -14 0 -27 -7 -30 -15 -7 -17 -40 -20 -49 -5 -3 6 -21 10 -38 10 -18 0
-69 7 -114 16 -76 15 -83 19 -83 40 0 20 -5 24 -31 24 -26 0 -31 -3 -26 -20 4
-17 2 -19 -21 -13 -15 3 -29 9 -32 12 -3 3 -23 6 -45 7 -22 0 -73 6 -112 13
-68 12 -73 15 -73 38 0 21 -4 24 -27 21 -20 -2 -28 -8 -27 -20 2 -21 -28 -24
-48 -5 -8 7 -46 13 -97 14 -109 2 -129 8 -137 38 -6 26 -28 32 -53 16 -8 -5
-11 -15 -8 -23 4 -11 -1 -14 -19 -10 -13 2 -24 8 -24 13 0 5 -26 6 -57 3 -32
-3 -85 -1 -118 5 l-60 10 76 -5 c82 -6 152 3 143 17 -3 5 -19 8 -36 6 -27 -2
-32 2 -39 27 -5 17 -6 32 -4 35 3 2 8 -10 11 -28 5 -22 11 -30 21 -27 8 4 21
6 29 6 11 0 14 8 12 27 -2 22 -10 29 -33 34 -26 6 -27 7 -5 8 27 1 18 16 -15
24 -15 4 -13 5 8 6 28 1 31 9 21 48 -5 18 -12 21 -38 18 -25 -4 -26 -3 -7 3
38 12 37 29 -1 25 l-33 -3 33 10 c29 10 32 14 26 38 -9 35 -7 34 -37 27 -18
-5 -27 -15 -30 -33 l-4 -27 -2 28 c-1 23 5 30 29 38 40 15 39 32 -2 25 -33 -6
-33 -6 -5 5 21 8 27 17 27 41 0 29 -1 30 -37 25 l-38 -6 33 11 c17 6 32 15 32
19 0 5 7 9 15 9 18 0 17 -3 6 38 -11 38 -5 62 15 62 23 0 16 18 -8 22 -12 2
-23 10 -25 18 -3 10 -2 11 4 4 4 -6 19 -13 34 -16 21 -4 25 -1 27 23 1 15 -6
35 -15 45 -13 13 -14 16 -3 12 8 -2 20 -20 26 -38 l11 -34 11 30 c9 25 11 26
11 7 1 -25 4 -26 39 -17 16 5 22 14 23 38 1 20 3 24 6 12 5 -19 6 -18 18 4
l13 24 7 -32 c6 -29 9 -31 33 -26 35 9 35 9 28 38 -4 17 -15 26 -34 29 -15 3
-5 3 23 2 42 -2 51 -6 55 -24 3 -12 8 -22 13 -22 4 1 16 1 27 1 16 0 20 7 20
31 0 24 4 30 15 25 8 -3 15 0 16 7 0 7 5 -1 11 -16 8 -23 15 -28 37 -25 23 3
26 7 24 38 -1 19 1 29 3 23 3 -7 12 -13 20 -13 9 0 12 5 8 12 -4 7 -3 8 4 4 7
-4 12 -16 12 -27 0 -14 7 -19 30 -19 27 0 30 3 31 33 0 17 3 26 6 20 7 -19 23
-16 24 5 0 10 4 6 11 -11 8 -23 15 -28 37 -25 22 3 26 7 24 33 -2 25 0 27 8
13 5 -10 14 -18 19 -18 5 0 11 8 13 18 4 13 5 11 6 -5 1 -19 7 -23 31 -23 26
0 30 4 31 28 1 18 3 21 6 9 3 -13 11 -17 24 -14 10 3 19 2 19 -2 0 -4 14 -6
30 -3 19 3 30 10 30 21 0 14 2 14 10 1 9 -13 11 -13 20 0 5 8 10 10 10 4 0
-12 95 -13 107 -1 3 4 13 7 22 6 12 0 10 -3 -4 -8 -22 -9 176 -5 214 4 13 3
43 3 67 -1 38 -5 44 -9 44 -31 0 -21 4 -24 28 -21 21 2 28 9 30 30 2 19 8 25
18 21 8 -3 14 1 15 8 0 8 6 1 12 -16 10 -25 17 -29 40 -27z m-1086 -4 c-3 -3
-12 -4 -19 -1 -8 3 -5 6 6 6 11 1 17 -2 13 -5z m-104 -21 c-7 -2 -19 -2 -25 0
-7 3 -2 5 12 5 14 0 19 -2 13 -5z m-196 -39 c-3 -3 -12 -4 -19 -1 -8 3 -5 6 6
6 11 1 17 -2 13 -5z m2106 -100 c-35 -188 -140 -487 -240 -689 -57 -113 -142
-255 -153 -255 -19 0 -41 13 -32 19 14 9 149 253 205 371 63 134 146 356 187
501 31 111 38 129 44 129 2 0 -3 -34 -11 -76z m-2296 -50 c-3 -3 -12 -4 -19
-1 -8 3 -5 6 6 6 11 1 17 -2 13 -5z m33 -47 c0 -10 -11 -22 -27 -28 -30 -11
-53 -6 -53 13 0 10 2 10 9 0 5 -9 17 -11 35 -6 25 6 27 10 22 38 -4 22 -3 27
4 16 5 -8 10 -23 10 -33z m-53 -119 c-3 -7 -5 -2 -5 12 0 14 2 19 5 13 2 -7 2
-19 0 -25z m-10 -100 c-3 -8 -6 -5 -6 6 -1 11 2 17 5 13 3 -3 4 -12 1 -19z
m-800 -14 c-3 -3 -12 -4 -19 -1 -8 3 -5 6 6 6 11 1 17 -2 13 -5z m780 -20 c-3
-3 -12 -4 -19 -1 -8 3 -5 6 6 6 11 1 17 -2 13 -5z m82 -69 c0 -5 -4 -3 -9 5
-5 8 -9 22 -9 30 0 16 17 -16 18 -35z m-42 3 c-3 -7 -5 -2 -5 12 0 14 2 19 5
13 2 -7 2 -19 0 -25z m-610 -50 c-3 -8 -6 -5 -6 6 -1 11 2 17 5 13 3 -3 4 -12
1 -19z m630 -40 c-3 -8 -6 -5 -6 6 -1 11 2 17 5 13 3 -3 4 -12 1 -19z m-369
-35 c-16 -2 -40 -2 -55 0 -16 2 -3 4 27 4 30 0 43 -2 28 -4z m179 -9 c-3 -3
-12 -4 -19 -1 -8 3 -5 6 6 6 11 1 17 -2 13 -5z m-662 -45 c-38 -5 -196 -15
-350 -24 -392 -22 -704 -56 -1108 -121 -87 -14 -161 -24 -163 -21 -7 6 353 75
536 101 178 26 401 52 570 65 144 11 610 11 515 0z m610 1 c204 -12 551 -51
770 -85 193 -30 436 -77 431 -83 -2 -2 -96 10 -208 27 -398 60 -659 88 -1078
116 -135 9 -258 20 -275 24 -44 13 153 13 360 1z m-490 -170 c-27 -12 -43 -12
-25 0 8 5 22 9 30 9 10 0 8 -3 -5 -9z m-272 -7 c-7 -2 -21 -2 -30 0 -10 3 -4
5 12 5 17 0 24 -2 18 -5z m155 0 c-16 -2 -40 -2 -55 0 -16 2 -3 4 27 4 30 0
43 -2 28 -4z m1849 1 c-3 -3 -12 -4 -19 -1 -8 3 -5 6 6 6 11 1 17 -2 13 -5z
m-2108 -8 c-8 -8 -88 -10 -95 -3 -4 4 17 7 46 7 29 0 51 -2 49 -4z m-136 -13
c-13 -2 -35 -2 -50 0 -16 2 -5 4 22 4 28 0 40 -2 28 -4z m153 -147 c8 -3 14 0
14 7 0 7 15 12 38 13 l37 1 -30 -13 -29 -12 47 -3 c31 -3 48 0 52 8 2 7 12 12
22 12 17 -1 17 -2 0 -6 -15 -4 -17 -11 -12 -31 9 -35 9 -36 40 -28 24 6 26 10
20 39 -6 31 -5 32 8 8 14 -23 15 -23 25 -5 11 18 11 18 12 0 0 -15 6 -17 29
-14 17 2 28 1 26 -3 -7 -11 23 -32 35 -24 5 3 10 -2 10 -12 0 -14 2 -15 9 -5
6 10 10 7 15 -11 5 -22 10 -24 33 -18 23 7 28 13 26 37 -2 28 -2 28 7 5 7 -17
7 -28 -2 -38 -10 -12 -9 -17 4 -27 19 -14 31 -57 53 -181 28 -164 36 -199 57
-267 20 -65 22 -67 42 -53 11 8 30 15 41 14 13 0 8 -4 -13 -10 -28 -8 -32 -13
-26 -32 9 -32 16 -36 46 -30 24 4 27 9 23 32 -5 22 -4 23 4 6 14 -30 13 -35
-11 -44 -22 -8 -21 -8 7 -23 17 -8 29 -21 27 -29 -2 -9 0 -11 6 -4 6 6 12 19
14 30 2 11 11 20 21 21 14 2 14 1 1 -3 -11 -3 -15 -13 -12 -34 3 -18 -1 -30
-10 -34 -24 -9 -32 -6 -32 14 0 25 -9 30 -42 24 -23 -4 -27 -9 -22 -29 5 -21
3 -24 -20 -24 -17 0 -26 5 -26 16 0 11 -5 14 -16 10 -9 -3 -22 -6 -30 -6 -8 0
-14 -6 -14 -14 0 -10 -27 -14 -129 -15 -121 -2 -129 -1 -134 19 -6 24 -29 26
-51 5 -12 -12 -29 -14 -86 -9 -62 6 -73 10 -83 31 -11 26 -45 31 -53 8 -8 -19
-15 -19 -103 1 -40 9 -71 21 -71 28 0 8 -17 12 -47 12 -57 -1 -94 11 -74 23
10 7 10 13 2 29 -9 17 -16 19 -34 13 -12 -5 -21 -16 -19 -25 2 -13 -10 -11
-76 13 -107 40 -208 86 -216 100 -4 6 -16 11 -27 11 -23 0 -99 46 -99 60 0 5
-6 7 -14 4 -12 -5 -90 36 -106 55 -3 3 -18 13 -33 22 -16 9 -56 36 -89 60 -59
43 -60 43 -34 52 20 7 25 14 21 28 -4 13 -2 19 9 19 9 0 16 6 16 13 0 6 6 3
12 -8 6 -11 12 -21 13 -23 1 -1 14 2 27 9 19 8 24 17 20 32 -3 13 -1 18 6 13
6 -3 15 2 21 11 6 10 11 14 11 8 0 -5 4 -16 9 -23 13 -21 60 5 54 29 -4 15 -1
18 11 13 10 -4 16 -1 16 7 1 10 5 9 14 -4 11 -14 19 -15 40 -8 15 6 24 16 20
24 -3 10 4 13 32 11 40 -4 78 11 69 26 -3 6 1 7 10 3 10 -3 21 0 26 8 6 10 9
11 9 1 0 -9 8 -9 35 2 19 8 35 13 35 10 0 -2 14 3 31 11 17 9 38 14 47 10 19
-7 110 10 170 32 33 12 46 13 55 4 9 -9 15 -7 27 9 15 19 15 19 17 -6 2 -35
13 -44 42 -33 18 7 22 15 19 34 -4 21 -3 23 9 13 11 -9 16 -9 22 1 6 9 10 7
14 -8 4 -18 9 -19 35 -10 19 7 29 16 27 27 -1 9 0 12 2 5 2 -6 11 -14 19 -17z
m404 -30 c0 -2 -11 -6 -25 -8 -13 -3 -22 -1 -19 3 5 9 44 13 44 5z m110 -77
c-32 -13 -32 -13 -24 -43 6 -24 10 -26 38 -21 29 5 29 4 7 -5 -33 -14 -47 -7
-55 26 -8 30 12 55 43 53 9 0 5 -5 -9 -10z m47 -41 c-3 -8 -6 -5 -6 6 -1 11 2
17 5 13 3 -3 4 -12 1 -19z m6 -55 c3 -5 -8 -8 -24 -9 -37 -1 -38 -3 -32 -37 5
-26 9 -28 37 -24 27 5 28 5 9 -5 -30 -14 -49 -5 -57 28 -6 21 -3 32 10 41 20
14 50 17 57 6z m734 -9 c-3 -3 -12 -4 -19 -1 -8 3 -5 6 6 6 11 1 17 -2 13 -5z
m105 -11 c-18 -4 -23 -10 -20 -31 2 -23 9 -28 36 -30 33 -3 34 -2 28 26 -6 25
-4 29 16 28 13 -1 25 -9 28 -19 3 -10 8 -18 13 -18 4 1 16 1 27 1 15 0 20 7
21 28 1 15 3 20 6 10 5 -20 33 -33 33 -15 0 8 2 9 8 1 8 -13 92 -29 142 -27
l35 2 -28 -11 c-23 -8 -28 -15 -25 -37 2 -21 8 -25 26 -23 12 2 22 1 22 -1 0
-9 -85 -55 -113 -62 -15 -4 -25 -11 -22 -15 3 -4 -6 -15 -20 -24 -24 -16 -25
-15 -25 4 0 16 -7 20 -30 20 -27 0 -30 -3 -30 -30 0 -17 5 -30 13 -30 20 -1
-126 -73 -153 -75 -14 -2 -33 -3 -43 -4 -11 0 -15 -6 -11 -12 7 -12 -12 -29
-33 -29 -7 0 -13 7 -13 15 0 17 -4 18 -38 8 -18 -4 -23 -11 -19 -29 2 -14 -2
-25 -10 -28 -26 -10 -33 -6 -32 17 1 17 2 18 6 4 6 -22 23 -12 23 14 0 13 11
25 33 34 33 15 30 18 -13 16 -23 0 -23 0 5 11 39 14 37 12 30 41 -4 16 -16 28
-28 30 -21 4 -21 4 1 6 17 1 26 -7 34 -30 6 -16 13 -28 15 -25 9 9 11 80 3 91
-27 37 -15 85 22 85 10 0 16 5 13 10 -3 6 -19 10 -34 10 -24 0 -29 5 -33 29
-2 17 -1 28 4 25 4 -3 8 -14 8 -25 0 -15 7 -19 31 -19 28 0 30 2 27 33 -3 29
-6 32 -33 30 -28 -2 -29 -2 -5 6 35 11 50 3 51 -28 0 -23 1 -24 9 -6 5 11 11
28 14 38 3 10 14 16 28 16 l23 -2 -23 -4z m-2517 -33 c3 -5 1 -10 -4 -10 -6 0
-11 5 -11 10 0 6 2 10 4 10 3 0 8 -4 11 -10z m2322 -6 c-3 -3 -12 -4 -19 -1
-8 3 -5 6 6 6 11 1 17 -2 13 -5z m42 -44 c0 -10 -3 -8 -9 5 -12 27 -12 43 0
25 5 -8 9 -22 9 -30z m567 14 c17 6 17 6 -1 -14 -25 -27 -35 -25 -35 8 0 19 3
23 9 13 6 -8 16 -11 27 -7z m-1264 -17 c-22 -7 -31 -15 -27 -24 3 -8 5 -21 5
-28 0 -8 10 -16 23 -18 l22 -4 -23 -2 c-21 -1 -42 29 -42 60 0 11 37 28 60 27
8 0 0 -5 -18 -11z m675 -23 c-3 -3 -12 -4 -19 -1 -8 3 -5 6 6 6 11 1 17 -2 13
-5z m-2918 -269 c489 -425 1012 -667 1646 -762 184 -27 659 -25 845 4 538 85
992 273 1405 583 202 152 414 341 467 418 13 20 19 21 40 12 24 -12 24 -12
-61 -102 -219 -232 -361 -355 -568 -493 -422 -282 -902 -453 -1412 -505 -148
-14 -463 -12 -623 5 -447 47 -870 190 -1259 426 -199 120 -350 235 -511 388
-118 111 -260 274 -247 282 6 3 47 -33 92 -80 45 -47 129 -126 186 -176z
m2924 238 c-7 -2 -19 -2 -25 0 -7 3 -2 5 12 5 14 0 19 -2 13 -5z m34 -57 c-4
-9 -14 -15 -24 -15 -16 1 -16 2 1 6 14 4 17 11 13 36 -5 28 -5 29 5 10 6 -12
8 -29 5 -37z m-690 8 c-3 -3 -12 -4 -19 -1 -8 3 -5 6 6 6 11 1 17 -2 13 -5z
m-24 -50 c5 -30 -8 -20 -18 15 -4 15 -3 21 3 17 5 -3 12 -17 15 -32z m660 -24
c-3 -12 -8 -19 -11 -16 -5 6 5 36 12 36 2 0 2 -9 -1 -20z m-616 4 c-3 -3 -12
-4 -19 -1 -8 3 -5 6 6 6 11 1 17 -2 13 -5z m-2 -31 c-31 -8 -37 -18 -26 -47 9
-22 15 -26 38 -21 23 4 24 4 8 -4 -33 -16 -43 -12 -54 20 -13 38 0 60 33 58
20 -1 20 -2 1 -6z m582 -15 c-3 -8 -6 -5 -6 6 -1 11 2 17 5 13 3 -3 4 -12 1
-19z m-540 -20 c-3 -8 -6 -5 -6 6 -1 11 2 17 5 13 3 -3 4 -12 1 -19z m520 -44
c-3 -3 -12 -4 -19 -1 -8 3 -5 6 6 6 11 1 17 -2 13 -5z m-3094 -31 c20 -16 36
-32 37 -37 0 -5 -6 -4 -12 2 -21 16 -159 54 -179 49 -11 -3 -17 -1 -13 4 3 5
33 9 68 9 53 0 68 -4 99 -27z m2624 -5 c-3 -8 -6 -5 -6 6 -1 11 2 17 5 13 3
-3 4 -12 1 -19z m441 -33 c-1 -1 -13 -6 -25 -9 -18 -6 -22 -4 -17 8 3 8 12 12
20 9 9 -3 14 2 15 13 1 18 2 18 6 1 3 -10 3 -20 1 -22z m1734 -2 c25 -22 51
-108 43 -142 -11 -51 -78 -111 -124 -111 -57 0 -109 95 -90 165 11 40 53 93
83 106 26 10 66 2 88 -18z m-4876 -9 c84 -49 99 -90 68 -185 -16 -49 -44 -79
-74 -79 -18 0 -104 76 -119 107 -6 12 -11 30 -11 41 0 28 46 129 62 135 22 9
28 8 74 -19z m2735 8 c-7 -2 -18 1 -23 6 -8 8 -4 9 13 5 13 -4 18 -8 10 -11z
m266 -4 c-3 -8 -6 -5 -6 6 -1 11 2 17 5 13 3 -3 4 -12 1 -19z m1633 -3 c-7 -8
-9 -15 -5 -15 4 0 2 -7 -5 -15 -7 -8 -10 -15 -6 -15 4 0 0 -10 -9 -23 -8 -13
-13 -26 -10 -28 8 -8 -148 -154 -248 -232 -431 -336 -956 -552 -1542 -632
-160 -22 -501 -30 -685 -16 -552 43 -1090 222 -1515 506 -118 79 -352 268
-379 306 -9 13 -16 20 -16 15 0 -5 -6 -3 -14 3 -15 13 -16 28 -2 49 6 10 11
10 22 1 7 -6 20 -9 28 -6 8 3 22 -3 32 -14 9 -10 21 -19 26 -19 5 0 42 -26 81
-59 188 -153 482 -331 729 -440 461 -204 923 -291 1433 -269 698 30 1370 304
1957 798 21 18 42 29 47 26 5 -4 13 -1 17 5 5 8 3 9 -7 4 -8 -4 6 13 31 39 42
44 66 63 40 31z m-1553 -11 c-3 -3 -12 -4 -19 -1 -8 3 -5 6 6 6 11 1 17 -2 13
-5z m-77 -20 c-25 -7 -52 -13 -60 -13 -21 1 60 27 85 27 11 0 0 -6 -25 -14z
m-2783 -38 l28 -31 -31 28 c-17 15 -33 25 -36 21 -3 -3 -8 -1 -12 4 -14 23 27
5 51 -22z m2613 14 c0 -13 -7 -20 -20 -20 -11 0 -20 4 -20 10 0 5 7 7 15 4 9
-4 15 0 15 10 0 9 2 16 5 16 3 0 5 -9 5 -20z m87 4 c-3 -3 -12 -4 -19 -1 -8 3
-5 6 6 6 11 1 17 -2 13 -5z m-44 -11 c-7 -2 -19 -2 -25 0 -7 3 -2 5 12 5 14 0
19 -2 13 -5z m-2963 -211 c0 3 25 0 56 -8 62 -17 84 -13 134 24 32 24 33 24
15 3 -31 -36 -89 -61 -142 -61 -46 0 -52 3 -104 58 -85 88 -101 114 -26 42 37
-35 67 -62 67 -58z m5015 37 l-80 -81 -57 4 c-61 4 -112 35 -147 88 -9 14 3 6
26 -17 41 -41 91 -63 144 -63 18 0 48 21 105 75 43 41 81 74 84 75 2 0 -31
-36 -75 -81z"/>
<path d="M1297 6123 l28 -37 -31 23 c-20 15 -50 25 -80 27 l-49 3 42 -10 c93
-22 124 -123 61 -195 -22 -25 -26 -34 -13 -27 22 12 56 48 74 78 l12 20 -5
-20 c-2 -11 -7 -31 -11 -43 -6 -22 -5 -23 14 -12 12 6 26 8 31 5 6 -3 7 1 4 9
-3 9 -2 16 3 16 17 0 15 98 -3 135 -16 35 -57 65 -89 65 -13 0 -10 -8 12 -37z"/>
<path d="M1117 6114 c-16 -9 -37 -34 -48 -57 -15 -35 -19 -38 -19 -17 0 17 -3
21 -11 13 -14 -14 -8 -69 8 -66 6 2 15 -6 18 -17 7 -22 65 -74 73 -65 3 3 -6
18 -21 33 -14 15 -29 39 -32 54 -10 41 12 97 49 119 37 22 23 25 -17 3z"/>
<path d="M6575 5120 c-3 -5 -2 -10 4 -10 5 0 13 5 16 10 3 6 2 10 -4 10 -5 0
-13 -4 -16 -10z"/>
<path d="M815 5281 c-3 -5 -2 -12 3 -15 5 -3 9 1 9 9 0 17 -3 19 -12 6z"/>
<path d="M780 5276 c0 -2 8 -10 18 -17 15 -13 16 -12 3 4 -13 16 -21 21 -21
13z"/>
<path d="M5733 4559 c-24 -9 -29 -25 -14 -48 11 -18 51 -5 51 17 0 29 -13 40
-37 31z"/>
<path d="M5630 4530 c-24 -6 -30 -33 -11 -52 9 -11 51 2 50 16 -2 30 -15 42
-39 36z"/>
<path d="M5522 4503 c-18 -4 -21 -9 -16 -31 9 -35 7 -34 38 -26 18 4 25 11 22
21 -3 8 -6 21 -6 29 0 8 -3 13 -7 13 -5 -1 -18 -4 -31 -6z"/>
<path d="M5418 4473 c-19 -5 -23 -29 -10 -51 6 -9 16 -10 34 -3 20 8 25 15 21
35 -5 26 -11 28 -45 19z"/>
<path d="M5762 4442 c-16 -3 -22 -8 -18 -19 3 -8 6 -19 6 -24 0 -5 11 -9 25
-9 17 0 25 5 25 18 0 26 -13 38 -38 34z"/>
<path d="M5658 4413 c-19 -5 -23 -20 -9 -42 12 -18 54 -4 47 16 -3 8 -6 19 -6
24 0 9 -4 10 -32 2z"/>
<path d="M5549 4382 c-23 -10 -6 -57 17 -48 9 3 19 6 23 6 5 0 6 11 3 25 -4
25 -14 29 -43 17z"/>
<path d="M5436 4352 c-10 -16 6 -53 21 -48 8 3 19 6 25 6 5 0 8 10 6 23 -3 22
-41 37 -52 19z"/>
<path d="M5348 4333 c-18 -5 -22 -20 -12 -46 5 -14 54 -12 54 2 -1 17 -13 51
-19 50 -3 -1 -14 -3 -23 -6z"/>
<path d="M5789 4323 c-18 -5 -14 -53 5 -53 21 0 38 17 34 35 -3 20 -14 25 -39
18z"/>
<path d="M5237 4303 c-11 -3 -16 -10 -13 -20 3 -8 6 -19 6 -24 0 -9 43 -13 52
-4 3 3 3 17 0 30 -4 25 -10 27 -45 18z"/>
<path d="M5676 4292 c-3 -5 -2 -18 1 -31 4 -17 10 -20 27 -15 28 9 29 9 21 33
-6 21 -39 29 -49 13z"/>
<path d="M5125 4270 c-9 -15 4 -50 20 -50 30 0 42 11 37 36 -3 17 -11 24 -28
24 -12 0 -26 -5 -29 -10z"/>
<path d="M5588 4273 c-11 -3 -18 -14 -18 -29 0 -22 4 -25 28 -22 21 2 26 8 24
23 -5 26 -13 32 -34 28z"/>
<path d="M5040 4250 c-18 -4 -24 -12 -22 -26 5 -28 17 -37 41 -29 40 12 22 65
-19 55z"/>
<path d="M5477 4243 c-13 -3 -16 -10 -11 -26 9 -29 9 -30 34 -22 14 5 20 13
18 28 -3 22 -13 27 -41 20z"/>
<path d="M4927 4223 c-14 -4 -17 -11 -13 -26 3 -12 6 -25 6 -30 0 -6 48 0 58
8 2 2 0 14 -4 29 -6 26 -12 28 -47 19z"/>
<path d="M5365 4210 c-3 -6 -4 -18 0 -29 4 -13 12 -17 30 -13 26 5 29 10 19
36 -7 18 -39 22 -49 6z"/>
<path d="M5814 4204 c-17 -7 -4 -56 13 -50 8 3 19 6 24 6 5 0 9 11 9 25 0 24
-16 31 -46 19z"/>
<path d="M5278 4193 c-11 -3 -18 -14 -18 -29 0 -16 6 -24 18 -24 29 0 40 13
31 38 -5 12 -10 21 -11 21 -2 -1 -11 -3 -20 -6z"/>
<path d="M5723 4182 c-24 -4 -27 -10 -17 -36 7 -17 39 -22 48 -7 12 19 -9 46
-31 43z"/>
<path d="M5163 4162 c-15 -9 -6 -52 11 -52 21 0 38 18 34 36 -4 21 -26 28 -45
16z"/>
<path d="M5604 4145 c-10 -26 3 -43 29 -38 19 4 23 10 19 29 -5 27 -39 34 -48
9z"/>
<path d="M5050 4126 c0 -31 11 -43 36 -38 17 3 23 9 20 19 -3 8 -6 19 -6 24 0
5 -11 9 -25 9 -15 0 -25 -6 -25 -14z"/>
<path d="M5512 4132 c-16 -3 -22 -8 -18 -19 3 -8 6 -19 6 -24 0 -15 40 -10 46
5 9 23 -9 42 -34 38z"/>
<path d="M4957 4113 c-13 -3 -16 -10 -11 -26 9 -30 10 -30 37 -23 20 5 23 11
19 31 -4 25 -10 27 -45 18z"/>
<path d="M5395 4100 c-3 -6 -4 -18 0 -29 4 -13 12 -17 31 -13 17 3 23 9 20 19
-3 8 -6 19 -6 24 0 12 -37 12 -45 -1z"/>
<path d="M5858 4093 c-11 -3 -18 -14 -18 -29 0 -19 5 -24 25 -24 20 0 25 5 25
24 0 28 -7 34 -32 29z"/>
<path d="M4845 4080 c-9 -14 4 -50 18 -50 22 0 39 17 35 36 -4 21 -42 31 -53
14z"/>
<path d="M5308 4083 c-11 -3 -18 -14 -18 -29 0 -21 4 -25 22 -22 23 3 37 34
21 47 -4 4 -16 6 -25 4z"/>
<path d="M4753 4060 c-19 -8 -21 -13 -14 -32 6 -17 15 -22 32 -20 31 5 31 5
23 36 -7 28 -8 29 -41 16z"/>
<path d="M5736 4062 c-3 -5 -3 -18 0 -29 4 -15 12 -19 30 -15 25 5 28 10 18
36 -6 17 -39 22 -48 8z"/>
<path d="M5193 4052 c-7 -4 -10 -17 -6 -30 4 -18 10 -21 27 -16 28 9 29 9 21
33 -7 22 -21 26 -42 13z"/>
<path d="M5648 4043 c-22 -5 -25 -53 -4 -53 31 0 43 11 38 36 -2 13 -7 23 -11
23 -3 -1 -14 -3 -23 -6z"/>
<path d="M4641 4031 c-21 -13 -4 -51 23 -51 30 0 34 5 28 35 -4 26 -25 32 -51
16z"/>
<path d="M5080 4005 c0 -20 5 -25 23 -25 30 0 36 6 30 31 -3 12 -14 19 -29 19
-19 0 -24 -5 -24 -25z"/>
<path d="M5528 4014 c-14 -13 6 -44 28 -44 25 0 28 7 18 34 -6 15 -35 22 -46
10z"/>
<path d="M4987 4003 c-13 -3 -16 -10 -11 -26 9 -29 9 -30 34 -22 14 5 20 13
18 28 -3 22 -13 27 -41 20z"/>
<path d="M5433 3993 c-14 -5 -18 -39 -5 -47 5 -3 18 -3 29 0 15 4 19 12 15 30
-4 23 -14 28 -39 17z"/>
<path d="M4870 3966 c0 -31 11 -43 36 -38 25 5 28 10 18 36 -8 20 -54 21 -54
2z"/>
<path d="M5332 3972 c-16 -3 -22 -8 -18 -19 3 -8 6 -19 6 -24 0 -5 11 -9 25
-9 17 0 25 5 25 18 0 26 -13 38 -38 34z"/>
<path d="M5879 3973 c-11 -3 -15 -12 -11 -29 7 -36 46 -29 50 9 3 27 -3 30
-39 20z"/>
<path d="M4779 3953 c-19 -5 -14 -53 6 -53 30 0 42 11 37 36 -4 23 -11 26 -43
17z"/>
<path d="M5777 3953 c-12 -3 -17 -12 -15 -26 3 -23 34 -35 49 -20 9 9 1 54
-10 52 -3 -1 -14 -3 -24 -6z"/>
<path d="M5221 3941 c-8 -5 -11 -16 -6 -30 5 -17 12 -20 28 -15 28 8 27 6 20
32 -6 23 -19 27 -42 13z"/>
<path d="M4666 3922 c-10 -16 6 -53 21 -48 8 3 19 6 25 6 5 0 8 10 6 23 -3 22
-41 37 -52 19z"/>
<path d="M5128 3923 c-11 -3 -18 -14 -18 -29 0 -21 4 -25 22 -22 23 3 37 34
21 47 -4 4 -16 6 -25 4z"/>
<path d="M5657 3923 c-3 -5 -1 -18 4 -30 11 -30 49 -20 49 13 0 19 -5 24 -24
24 -14 0 -27 -3 -29 -7z"/>
<path d="M4578 3903 c-11 -3 -18 -14 -18 -29 0 -19 5 -24 24 -24 14 0 27 4 30
8 6 11 -4 52 -13 51 -3 -1 -14 -3 -23 -6z"/>
<path d="M5561 3901 c-8 -5 -11 -16 -6 -30 5 -17 12 -20 28 -15 29 9 30 9 22
33 -7 22 -21 26 -44 12z"/>
<path d="M5006 3892 c-3 -5 -2 -18 1 -31 4 -17 10 -20 27 -15 28 9 29 9 21 33
-6 21 -39 29 -49 13z"/>
<path d="M5468 3883 c-22 -5 -25 -53 -4 -53 31 0 43 11 38 36 -2 13 -7 23 -11
23 -3 -1 -14 -3 -23 -6z"/>
<path d="M4918 3873 c-19 -5 -24 -38 -8 -48 6 -3 18 -4 29 0 13 4 17 12 13 30
-2 14 -7 24 -11 24 -3 -1 -14 -3 -23 -6z"/>
<path d="M5363 3862 c-24 -4 -27 -10 -17 -36 9 -22 54 -21 54 2 0 26 -13 38
-37 34z"/>
<path d="M4799 3845 c-4 -3 -4 -17 -1 -31 3 -17 9 -23 19 -20 8 3 19 6 25 6 5
0 8 10 6 23 -3 21 -36 36 -49 22z"/>
<path d="M5244 3825 c-10 -26 3 -43 29 -38 19 4 23 10 19 29 -5 27 -39 34 -48
9z"/>
<path d="M4707 3823 c-12 -3 -17 -12 -15 -26 3 -23 25 -32 45 -19 12 8 7 53
-6 51 -3 -1 -14 -3 -24 -6z"/>
<path d="M5147 3813 c-11 -3 -16 -10 -13 -20 3 -8 6 -19 6 -24 0 -12 37 -12
45 1 7 12 -3 51 -13 49 -4 -1 -15 -3 -25 -6z"/>
<path d="M4594 3794 c-17 -7 -4 -56 13 -50 8 3 19 6 24 6 5 0 9 11 9 25 0 24
-16 31 -46 19z"/>
<path d="M1330 4310 c0 -28 3 -30 36 -30 29 0 35 3 30 16 -3 9 -6 22 -6 30 0
9 -11 14 -30 14 -27 0 -30 -3 -30 -30z"/>
<path d="M1382 4233 c-33 -6 -28 -57 7 -61 13 -2 27 0 31 5 9 9 1 64 -9 62 -3
-1 -16 -4 -29 -6z"/>
<path d="M1447 4201 c-4 -17 -3 -21 5 -13 5 5 8 16 6 23 -3 8 -7 3 -11 -10z"/>
<path d="M1413 4123 c-23 -4 -28 -18 -17 -47 7 -17 49 -22 59 -6 7 11 -4 61
-14 59 -3 -1 -16 -4 -28 -6z"/>
<path d="M1308 4103 c-12 -3 -18 -14 -18 -34 0 -21 5 -29 18 -29 28 0 44 16
40 40 -3 25 -13 30 -40 23z"/>
<path d="M1481 4094 c0 -11 3 -14 6 -6 3 7 2 16 -1 19 -3 4 -6 -2 -5 -13z"/>
<path d="M1437 4013 c-14 -4 -17 -11 -13 -26 3 -12 6 -25 6 -29 0 -11 32 -10
48 1 9 5 11 17 6 34 -6 27 -12 29 -47 20z"/>
<path d="M1338 3993 c-26 -7 -25 -63 1 -63 37 0 48 10 43 40 -4 29 -10 32 -44
23z"/>
<path d="M2347 3103 c-15 -4 -17 -11 -12 -31 8 -33 5 -31 38 -25 19 4 26 10
23 20 -3 8 -6 21 -6 29 0 14 -10 16 -43 7z"/>
<path d="M2674 3082 c-18 -11 2 -52 25 -52 25 0 34 14 26 40 -6 20 -30 26 -51
12z"/>
<path d="M2248 3073 c-19 -5 -23 -29 -10 -50 4 -7 17 -10 30 -6 18 4 22 12 20
31 -3 27 -12 32 -40 25z"/>
<path d="M1807 3063 c-15 -4 -17 -11 -12 -31 9 -35 8 -34 38 -23 22 9 25 14
18 33 -9 24 -17 28 -44 21z"/>
<path d="M1361 3051 c-21 -13 -4 -51 23 -51 30 0 34 5 28 35 -4 26 -25 32 -51
16z"/>
<path d="M2574 3054 c-17 -7 -4 -54 15 -54 27 0 41 15 34 38 -5 21 -23 26 -49
16z"/>
<path d="M2148 3043 c-18 -5 -22 -20 -12 -46 5 -14 54 -12 54 2 -1 17 -13 51
-19 50 -3 -1 -14 -3 -23 -6z"/>
<path d="M1708 3033 c-19 -5 -23 -29 -10 -50 10 -15 52 -5 52 12 0 19 -11 45
-19 44 -3 -1 -14 -3 -23 -6z"/>
<path d="M2473 3022 c-12 -8 -7 -52 6 -52 32 1 48 13 43 36 -4 24 -26 31 -49
16z"/>
<path d="M2043 3010 c-18 -8 -21 -13 -14 -32 4 -13 10 -23 12 -22 40 7 46 13
42 38 -6 28 -7 29 -40 16z"/>
<path d="M2818 3013 c-18 -5 -22 -20 -12 -46 5 -14 54 -12 54 2 -1 17 -13 51
-19 50 -3 -1 -14 -3 -23 -6z"/>
<path d="M1603 3000 c-18 -8 -21 -13 -14 -32 4 -13 10 -23 12 -22 40 7 46 13
42 38 -6 28 -7 29 -40 16z"/>
<path d="M2371 2991 c-15 -10 -6 -51 12 -51 25 0 39 18 32 39 -7 22 -21 26
-44 12z"/>
<path d="M1942 2982 c-16 -2 -22 -8 -18 -19 3 -8 6 -19 6 -24 0 -5 11 -9 25
-9 20 0 25 5 25 24 0 29 -6 33 -38 28z"/>
<path d="M2712 2982 c-16 -2 -22 -8 -18 -19 3 -8 6 -19 6 -24 0 -6 12 -9 28
-7 21 2 26 8 24 23 -5 27 -12 32 -40 27z"/>
<path d="M1503 2969 c-19 -7 -21 -12 -14 -31 4 -13 10 -23 12 -22 38 6 47 13
42 33 -7 27 -13 30 -40 20z"/>
<path d="M2272 2961 c-23 -14 -10 -46 18 -43 30 3 30 3 23 30 -6 23 -19 27
-41 13z"/>
<path d="M1843 2952 c-23 -3 -27 -14 -15 -43 5 -12 13 -14 30 -8 12 5 22 12
21 16 -2 24 -16 38 -36 35z"/>
<path d="M2607 2953 c-11 -3 -16 -10 -13 -20 3 -8 6 -19 6 -24 0 -12 37 -12
45 1 7 12 -3 51 -13 49 -4 -1 -15 -3 -25 -6z"/>
<path d="M1401 2939 c-15 -6 -21 -14 -17 -25 3 -9 6 -19 6 -23 0 -5 11 -6 25
-3 25 4 32 25 17 48 -4 8 -15 8 -31 3z"/>
<path d="M2169 2932 c-23 -10 -6 -57 17 -48 9 3 19 6 23 6 5 0 6 11 3 25 -4
25 -14 29 -43 17z"/>
<path d="M1738 2923 c-18 -5 -23 -29 -10 -49 4 -7 15 -8 28 -4 17 7 20 14 17
34 -3 14 -8 25 -12 25 -3 -1 -14 -3 -23 -6z"/>
<path d="M2508 2923 c-19 -5 -22 -12 -12 -37 6 -17 39 -22 48 -8 6 11 -4 52
-13 51 -3 -1 -14 -3 -23 -6z"/>
<path d="M2844 2910 c-17 -7 -20 -14 -16 -35 3 -18 9 -24 19 -21 8 3 19 6 24
6 11 0 12 30 1 46 -4 7 -15 8 -28 4z"/>
<path d="M2067 2903 c-13 -3 -16 -10 -11 -26 9 -29 9 -30 34 -22 14 5 20 13
18 28 -3 22 -13 27 -41 20z"/>
<path d="M1633 2889 c-19 -7 -21 -12 -14 -31 4 -13 10 -23 12 -22 38 6 47 13
42 33 -7 27 -13 30 -40 20z"/>
<path d="M2407 2892 c-29 -6 -18 -47 13 -47 19 0 24 4 22 20 -5 26 -13 32 -35
27z"/>
<path d="M1968 2873 c-19 -5 -22 -12 -12 -37 13 -33 60 -11 49 23 -3 11 -9 20
-13 20 -4 -1 -15 -3 -24 -6z"/>
<path d="M2726 2872 c-3 -5 -3 -18 0 -29 4 -15 12 -19 30 -15 25 5 28 10 18
36 -6 17 -39 22 -48 8z"/>
<path d="M2303 2859 c-30 -11 -20 -49 13 -49 19 0 24 5 24 24 0 30 -8 36 -37
25z"/>
<path d="M1524 2852 c-7 -4 -8 -15 -3 -29 11 -29 51 -20 47 11 -3 22 -25 31
-44 18z"/>
<path d="M1868 2843 c-19 -5 -23 -20 -9 -42 12 -18 54 -4 47 16 -3 8 -6 19 -6
24 0 9 -4 10 -32 2z"/>
<path d="M2624 2836 c-10 -25 8 -45 33 -35 15 6 20 14 16 28 -6 24 -41 28 -49
7z"/>
<path d="M2204 2830 c-17 -7 -20 -14 -16 -35 3 -18 9 -24 19 -21 8 3 19 6 24
6 11 0 12 30 1 46 -4 7 -15 8 -28 4z"/>
<path d="M2961 2831 c-15 -10 -6 -51 12 -51 22 0 39 17 35 36 -4 21 -26 28
-47 15z"/>
<path d="M1423 2822 c-7 -4 -10 -17 -6 -30 4 -18 10 -21 27 -16 28 9 29 9 21
33 -7 22 -21 26 -42 13z"/>
<path d="M1768 2813 c-19 -5 -22 -20 -12 -47 9 -23 53 0 47 25 -6 23 -12 27
-35 22z"/>
<path d="M2524 2812 c-7 -4 -8 -15 -3 -29 11 -30 49 -20 49 13 0 24 -22 32
-46 16z"/>
<path d="M2861 2801 c-8 -5 -11 -16 -6 -30 5 -17 12 -20 28 -15 28 8 27 6 20
32 -6 23 -19 27 -42 13z"/>
<path d="M2086 2792 c-3 -5 -2 -18 1 -31 4 -17 10 -20 27 -15 28 9 29 9 21 33
-6 21 -39 29 -49 13z"/>
<path d="M1664 2777 c-29 -16 -16 -58 15 -50 21 5 27 28 13 50 -5 9 -12 9 -28
0z"/>
<path d="M2423 2782 c-17 -11 -4 -55 14 -48 8 3 19 6 25 6 5 0 8 10 6 22 -3
24 -25 33 -45 20z"/>
<path d="M2759 2772 c-23 -10 -6 -57 17 -48 9 3 19 6 23 6 5 0 6 11 3 25 -4
25 -14 29 -43 17z"/>
<path d="M1991 2761 c-8 -5 -11 -16 -6 -30 5 -17 12 -20 28 -15 28 8 27 6 20
32 -6 23 -19 27 -42 13z"/>
<path d="M2323 2752 c-7 -4 -10 -17 -6 -30 4 -18 10 -21 27 -16 28 9 29 9 21
33 -7 22 -21 26 -42 13z"/>
<path d="M1553 2742 c-7 -4 -10 -17 -6 -30 4 -18 10 -21 27 -16 28 9 29 9 21
33 -7 22 -21 26 -42 13z"/>
<path d="M2657 2743 c-11 -3 -16 -10 -13 -20 3 -8 6 -19 6 -24 0 -11 21 -11
39 0 13 8 7 52 -7 50 -4 -1 -15 -3 -25 -6z"/>
<path d="M1893 2733 c-15 -5 -17 -39 -4 -47 5 -4 18 -3 29 1 15 6 18 13 11 31
-8 22 -14 25 -36 15z"/>
<path d="M2987 2733 c-13 -3 -16 -10 -11 -26 9 -30 10 -30 37 -23 20 5 23 11
19 31 -4 25 -10 27 -45 18z"/>
<path d="M2228 2723 c-19 -5 -23 -20 -9 -42 12 -18 54 -4 47 16 -3 8 -6 19 -6
24 0 9 -4 10 -32 2z"/>
<path d="M1458 2713 c-19 -5 -23 -20 -9 -42 12 -18 54 -4 47 16 -3 8 -6 19 -6
24 0 9 -4 10 -32 2z"/>
<path d="M2558 2713 c-19 -5 -22 -12 -12 -37 13 -33 60 -11 49 23 -3 11 -9 20
-13 20 -4 -1 -15 -3 -24 -6z"/>
<path d="M1793 2699 c-15 -6 -20 -14 -16 -28 6 -24 41 -28 49 -7 10 25 -8 45
-33 35z"/>
<path d="M2887 2703 c-12 -3 -16 -10 -13 -20 3 -8 6 -19 6 -25 0 -5 10 -8 23
-6 16 2 22 10 22 27 0 26 -9 31 -38 24z"/>
<path d="M2128 2693 c-19 -5 -24 -38 -8 -48 20 -12 48 5 43 26 -6 23 -12 27
-35 22z"/>
<path d="M2458 2683 c-19 -5 -23 -20 -9 -42 12 -18 54 -4 47 16 -3 8 -6 19 -6
24 0 9 -4 10 -32 2z"/>
<path d="M2788 2673 c-19 -5 -22 -12 -12 -37 13 -33 60 -11 49 23 -3 11 -9 20
-13 20 -4 -1 -15 -3 -24 -6z"/>
<path d="M1676 2662 c-3 -5 -2 -18 1 -31 4 -17 10 -20 27 -15 28 9 29 9 21 33
-6 21 -39 29 -49 13z"/>
<path d="M3117 2663 c-15 -4 -17 -11 -12 -31 9 -35 8 -34 38 -23 22 9 25 14
18 33 -9 24 -17 28 -44 21z"/>
<path d="M2014 2652 c-7 -4 -8 -15 -3 -29 11 -29 51 -20 47 11 -3 22 -25 31
-44 18z"/>
<path d="M2358 2653 c-18 -5 -23 -29 -10 -49 4 -7 15 -8 29 -3 15 6 20 13 16
29 -6 24 -12 28 -35 23z"/>
<path d="M2687 2643 c-12 -3 -17 -12 -15 -26 3 -23 34 -35 49 -20 9 9 1 54
-10 52 -3 -1 -14 -3 -24 -6z"/>
<path d="M1581 2631 c-8 -5 -11 -16 -6 -30 5 -17 12 -20 28 -15 29 9 30 9 22
33 -7 22 -21 26 -44 12z"/>
<path d="M3018 2633 c-18 -5 -23 -29 -10 -49 8 -13 52 0 52 15 0 16 -12 41
-19 40 -3 -1 -14 -3 -23 -6z"/>
<path d="M1917 2623 c-11 -3 -16 -10 -13 -20 3 -8 6 -19 6 -24 0 -11 21 -11
39 0 13 8 7 52 -7 50 -4 -1 -15 -3 -25 -6z"/>
<path d="M2244 2612 c-7 -4 -8 -15 -3 -29 11 -29 51 -20 47 11 -3 22 -25 31
-44 18z"/>
<path d="M2583 2609 c-19 -7 -21 -12 -14 -31 4 -13 10 -23 12 -22 38 6 47 13
42 33 -7 27 -13 30 -40 20z"/>
<path d="M1488 2603 c-19 -5 -23 -20 -9 -42 12 -18 54 -4 47 16 -3 8 -6 19 -6
24 0 9 -4 10 -32 2z"/>
<path d="M2917 2603 c-27 -7 -19 -59 8 -55 11 2 23 7 27 11 8 7 -1 52 -11 50
-3 -1 -14 -3 -24 -6z"/>
<path d="M1818 2593 c-19 -5 -22 -12 -12 -37 7 -18 39 -22 49 -6 7 12 -3 51
-13 49 -4 -1 -15 -3 -24 -6z"/>
<path d="M3243 2590 c-19 -8 -21 -13 -14 -32 6 -16 16 -22 32 -20 30 3 33 7
25 37 -7 27 -10 28 -43 15z"/>
<path d="M2147 2583 c-11 -3 -16 -10 -13 -20 3 -8 6 -19 6 -24 0 -11 21 -11
39 0 13 8 7 52 -7 50 -4 -1 -15 -3 -25 -6z"/>
<path d="M2474 2572 c-7 -4 -8 -15 -3 -29 11 -29 51 -20 47 11 -3 22 -25 31
-44 18z"/>
<path d="M2813 2569 c-19 -7 -21 -12 -14 -31 4 -13 10 -23 12 -22 38 6 47 13
42 33 -7 27 -13 30 -40 20z"/>
<path d="M3144 2560 c-17 -6 -20 -15 -16 -35 4 -23 8 -26 31 -20 33 9 33 8 25
39 -7 28 -9 29 -40 16z"/>
<path d="M1706 2552 c-3 -5 -2 -18 1 -31 4 -17 10 -20 27 -15 28 9 29 9 21 33
-6 21 -39 29 -49 13z"/>
<path d="M2053 2549 c-25 -9 -26 -10 -17 -33 7 -17 39 -22 48 -7 4 5 3 18 -1
29 -6 15 -13 18 -30 11z"/>
<path d="M3473 2550 c-18 -7 -20 -14 -14 -37 6 -20 13 -27 27 -25 29 5 37 18
30 46 -7 28 -10 29 -43 16z"/>
<path d="M2377 2543 c-11 -3 -16 -10 -13 -20 3 -8 6 -19 6 -24 0 -11 21 -11
39 0 13 8 7 52 -7 50 -4 -1 -15 -3 -25 -6z"/>
<path d="M2696 2532 c-10 -16 6 -53 21 -48 8 3 19 6 25 6 5 0 8 10 6 23 -3 22
-41 37 -52 19z"/>
<path d="M3042 2532 c-20 -3 -23 -8 -17 -30 9 -35 8 -34 38 -23 19 8 24 15 20
31 -7 25 -11 27 -41 22z"/>
<path d="M1618 2523 c-19 -5 -23 -20 -9 -42 12 -18 54 -4 47 16 -3 8 -6 19 -6
24 0 9 -4 10 -32 2z"/>
<path d="M3373 2523 c-25 -5 -26 -7 -17 -40 6 -23 29 -29 52 -14 13 8 7 63 -7
60 -3 -1 -16 -4 -28 -6z"/>
<path d="M1941 2511 c-8 -5 -11 -16 -6 -30 5 -17 12 -20 28 -15 29 9 30 9 22
33 -7 22 -21 26 -44 12z"/>
<path d="M2278 2513 c-19 -5 -22 -12 -12 -37 6 -17 39 -22 48 -8 6 11 -4 52
-13 51 -3 -1 -14 -3 -23 -6z"/>
<path d="M2601 2501 c-15 -10 -6 -51 12 -51 25 0 39 18 32 39 -7 22 -21 26
-44 12z"/>
<path d="M2943 2499 c-24 -9 -29 -25 -15 -46 11 -17 52 -4 52 16 0 28 -13 39
-37 30z"/>
<path d="M3273 2492 c-24 -3 -30 -26 -14 -50 5 -9 17 -11 35 -6 21 5 25 10 20
28 -8 28 -15 33 -41 28z"/>
<path d="M1504 2476 c-10 -25 8 -45 33 -35 15 6 20 14 16 28 -6 24 -41 28 -49
7z"/>
<path d="M1848 2483 c-19 -5 -23 -20 -9 -42 12 -18 54 -4 47 16 -3 8 -6 19 -6
24 0 9 -4 10 -32 2z"/>
<path d="M2171 2471 c-8 -5 -11 -16 -6 -30 5 -17 12 -20 28 -15 28 8 27 6 20
32 -6 23 -19 27 -42 13z"/>
<path d="M2508 2473 c-19 -5 -23 -20 -9 -42 12 -18 54 -4 47 16 -3 8 -6 19 -6
24 0 9 -4 10 -32 2z"/>
<path d="M2825 2460 c-3 -6 -3 -19 0 -31 5 -15 12 -18 28 -13 29 9 30 9 22 33
-7 22 -39 29 -50 11z"/>
<path d="M3173 2462 c-17 -2 -23 -10 -23 -27 0 -29 13 -38 40 -30 37 12 21 63
-17 57z"/>
<path d="M3556 2443 c-6 -14 -5 -15 5 -6 7 7 10 15 7 18 -3 3 -9 -2 -12 -12z"/>
<path d="M1737 2443 c-9 -9 -8 -25 2 -42 13 -21 51 3 44 29 -5 19 -32 27 -46
13z"/>
<path d="M2077 2443 c-12 -3 -17 -12 -15 -26 3 -23 25 -32 45 -19 12 8 7 53
-6 51 -3 -1 -14 -3 -24 -6z"/>
<path d="M2394 2426 c-10 -25 8 -45 33 -35 15 6 20 14 16 28 -6 24 -41 28 -49
7z"/>
<path d="M2732 2431 c-18 -11 -12 -45 8 -48 25 -5 40 11 33 35 -6 23 -19 27
-41 13z"/>
<path d="M1648 2413 c-19 -5 -24 -38 -8 -48 20 -12 48 5 43 26 -6 23 -12 27
-35 22z"/>
<path d="M1963 2402 c-9 -5 -9 -12 0 -28 16 -29 58 -16 50 15 -5 21 -28 27
-50 13z"/>
<path d="M2299 2402 c-12 -5 -14 -13 -8 -29 9 -24 14 -26 40 -15 12 5 14 13 8
30 -9 23 -14 25 -40 14z"/>
<path d="M2633 2399 c-19 -7 -21 -12 -14 -31 4 -13 10 -23 12 -22 38 6 47 13
42 33 -7 27 -13 30 -40 20z"/>
<path d="M1872 2370 c-19 -8 -21 -13 -12 -30 19 -36 63 -20 49 18 -5 12 -10
22 -11 21 -2 0 -13 -4 -26 -9z"/>
<path d="M2203 2369 c-15 -6 -20 -13 -16 -29 7 -27 14 -30 40 -17 18 10 20 15
10 33 -9 17 -17 20 -34 13z"/>
<path d="M1764 2332 c-12 -8 -1 -52 13 -52 19 1 35 19 31 36 -4 20 -26 29 -44
16z"/>
<path d="M2097 2333 c-13 -3 -16 -10 -11 -26 9 -29 9 -30 34 -22 14 5 20 13
18 28 -3 22 -13 27 -41 20z"/>
<path d="M1673 2299 c-15 -6 -20 -13 -16 -29 7 -27 14 -30 40 -17 18 10 20 15
10 33 -9 17 -17 20 -34 13z"/>
<path d="M2003 2299 c-25 -9 -26 -10 -17 -33 8 -20 43 -21 50 -2 10 26 -8 45
-33 35z"/>
<path d="M5635 3100 c-12 -20 6 -50 31 -50 20 0 24 5 24 30 0 25 -4 30 -24 30
-14 0 -28 -5 -31 -10z"/>
<path d="M5528 3085 c-11 -12 5 -55 21 -55 29 0 44 16 36 39 -6 19 -43 30 -57
16z"/>
<path d="M5438 3073 c-35 -9 -18 -62 18 -55 19 3 24 11 24 33 0 29 -6 32 -42
22z"/>
<path d="M5324 3054 c-6 -3 -9 -16 -6 -29 3 -18 11 -25 26 -25 30 0 34 6 28
35 -4 24 -21 30 -48 19z"/>
<path d="M5210 3016 c0 -30 13 -40 40 -31 13 4 20 15 20 31 0 20 -5 24 -30 24
-25 0 -30 -4 -30 -24z"/>
<path d="M5106 2993 c4 -16 7 -29 8 -30 1 -1 13 1 27 4 21 4 25 9 21 29 -3 19
-11 24 -33 24 -27 0 -29 -2 -23 -27z"/>
<path d="M5023 3002 c-16 -2 -23 -10 -23 -26 0 -30 5 -34 35 -28 18 3 25 11
25 28 0 27 -7 31 -37 26z"/>
<path d="M5779 3003 c-27 -7 -12 -53 17 -53 20 0 24 5 24 30 0 29 -6 33 -41
23z"/>
<path d="M4912 2983 c-16 -3 -22 -9 -18 -20 3 -8 6 -21 6 -29 0 -11 7 -13 28
-8 15 4 28 7 29 8 4 3 -10 56 -16 55 -3 -1 -16 -4 -29 -6z"/>
<path d="M5660 2965 c0 -21 5 -25 31 -25 24 0 30 3 25 16 -3 9 -6 20 -6 25 0
5 -11 9 -25 9 -20 0 -25 -5 -25 -25z"/>
<path d="M5558 2975 c-8 -8 3 -55 12 -55 24 0 40 15 40 36 0 18 -5 24 -23 24
-13 0 -26 -2 -29 -5z"/>
<path d="M4808 2963 c-11 -3 -18 -14 -18 -27 0 -30 5 -34 36 -28 20 4 24 10
22 30 -3 27 -12 32 -40 25z"/>
<path d="M5450 2935 c0 -20 5 -25 25 -25 20 0 25 5 25 25 0 20 -5 25 -25 25
-20 0 -25 -5 -25 -25z"/>
<path d="M4697 2943 c-15 -4 -17 -11 -12 -31 8 -33 5 -31 38 -25 19 4 26 10
23 20 -3 8 -6 21 -6 29 0 14 -10 16 -43 7z"/>
<path d="M5351 2941 c-15 -10 -6 -51 12 -51 22 0 39 17 35 36 -4 21 -26 28
-47 15z"/>
<path d="M4598 2923 c-12 -3 -18 -14 -18 -35 0 -27 3 -30 23 -24 12 3 26 6 30
6 12 0 4 53 -8 56 -5 1 -18 0 -27 -3z"/>
<path d="M5240 2899 c0 -24 3 -30 16 -25 9 3 20 6 25 6 5 0 9 11 9 25 0 20 -5
25 -25 25 -21 0 -25 -5 -25 -31z"/>
<path d="M5153 2912 c-17 -2 -23 -10 -23 -28 0 -20 5 -24 30 -24 22 0 30 5 30
18 0 26 -13 38 -37 34z"/>
<path d="M4493 2903 c-24 -5 -30 -27 -14 -52 13 -20 65 -6 57 15 -3 9 -6 22
-6 30 0 8 -3 13 -7 13 -5 -1 -18 -4 -30 -6z"/>
<path d="M5037 2893 c-11 -3 -16 -10 -13 -20 3 -8 6 -19 6 -24 0 -5 11 -9 25
-9 21 0 25 5 25 30 0 30 -5 33 -43 23z"/>
<path d="M4390 2880 c-17 -4 -24 -12 -22 -26 6 -37 10 -42 36 -37 21 4 26 11
26 34 0 33 -7 38 -40 29z"/>
<path d="M5792 2868 c2 -17 11 -24 32 -26 23 -3 28 0 22 13 -3 9 -6 21 -6 26
0 5 -12 9 -26 9 -21 0 -25 -4 -22 -22z"/>
<path d="M4927 2873 c-4 -3 -7 -17 -7 -30 0 -18 6 -23 24 -23 30 0 40 13 31
40 -6 19 -35 27 -48 13z"/>
<path d="M5690 2855 c0 -20 5 -25 25 -25 20 0 25 5 25 25 0 20 -5 25 -25 25
-20 0 -25 -5 -25 -25z"/>
<path d="M5593 2863 c-7 -2 -13 -16 -13 -30 0 -21 4 -24 23 -19 12 3 25 6 28
6 3 0 4 11 1 25 -4 24 -14 29 -39 18z"/>
<path d="M4816 2852 c-9 -14 6 -52 19 -52 30 0 42 11 37 36 -3 17 -11 24 -28
24 -12 0 -25 -4 -28 -8z"/>
<path d="M5470 2841 c0 -25 14 -41 37 -41 20 0 24 4 21 23 -2 16 -11 23 -30
25 -16 2 -28 -1 -28 -7z"/>
<path d="M4710 2810 c0 -31 19 -40 49 -21 22 14 4 51 -25 51 -20 0 -24 -5 -24
-30z"/>
<path d="M5377 2833 c-10 -10 -8 -53 2 -53 25 0 41 14 41 36 0 17 -6 24 -18
24 -10 0 -22 -3 -25 -7z"/>
<path d="M5283 2822 c-17 -3 -23 -10 -23 -28 0 -20 5 -24 30 -24 30 0 35 10
22 40 -4 9 -17 14 -29 12z"/>
<path d="M4600 2803 c0 -32 16 -46 43 -40 20 6 23 12 19 32 -3 20 -10 25 -33
25 -21 0 -29 -5 -29 -17z"/>
<path d="M4410 2800 c0 -5 5 -10 11 -10 5 0 7 5 4 10 -3 6 -8 10 -11 10 -2 0
-4 -4 -4 -10z"/>
<path d="M5164 2804 c-6 -3 -9 -16 -6 -30 7 -36 46 -30 50 9 3 27 -12 34 -44
21z"/>
<path d="M4499 2795 c-4 -3 -4 -17 -1 -30 3 -20 10 -25 34 -25 26 0 29 3 26
28 -2 20 -9 28 -28 30 -14 2 -28 0 -31 -3z"/>
<path d="M5052 2763 c2 -23 7 -28 27 -25 31 3 31 3 24 30 -4 15 -13 22 -30 22
-21 0 -24 -4 -21 -27z"/>
<path d="M4395 2769 c-4 -5 -4 -21 -1 -35 6 -21 11 -23 34 -18 15 4 28 7 29 8
1 1 -1 13 -4 29 -4 20 -11 27 -29 27 -12 0 -26 -5 -29 -11z"/>
<path d="M4962 2772 c-20 -3 -23 -8 -17 -30 8 -34 7 -32 33 -25 15 3 22 13 22
29 0 27 -7 31 -38 26z"/>
<path d="M5710 2747 c0 -30 5 -35 34 -30 18 4 22 10 18 29 -6 34 -52 35 -52 1z"/>
<path d="M4366 2745 c-9 -26 -7 -32 5 -12 6 10 9 21 6 23 -2 3 -7 -2 -11 -11z"/>
<path d="M4857 2753 c-13 -3 -17 -12 -15 -31 2 -22 7 -26 28 -24 14 2 26 5 28
7 5 5 -10 55 -17 54 -3 -1 -14 -3 -24 -6z"/>
<path d="M5619 2753 c-18 -5 -14 -53 5 -53 21 0 38 17 34 35 -3 20 -14 25 -39
18z"/>
<path d="M4748 2733 c-35 -9 -18 -62 18 -55 19 3 24 11 24 33 0 29 -6 32 -42
22z"/>
<path d="M5500 2715 c0 -20 5 -25 25 -25 20 0 25 5 25 25 0 20 -5 25 -25 25
-20 0 -25 -5 -25 -25z"/>
<path d="M5392 2703 c2 -23 7 -27 28 -25 31 5 30 4 23 30 -4 15 -13 22 -30 22
-21 0 -24 -4 -21 -27z"/>
<path d="M4638 2713 c-21 -5 -21 -4 -9 -36 8 -19 15 -23 35 -20 28 6 29 7 20
41 -6 22 -13 24 -46 15z"/>
<path d="M5304 2713 c-32 -6 -21 -53 12 -53 19 0 24 5 24 24 0 28 -7 33 -36
29z"/>
<path d="M4533 2693 c-31 -12 -8 -65 25 -56 16 4 22 13 22 34 0 29 -15 36 -47
22z"/>
<path d="M5182 2673 c2 -23 7 -28 27 -25 31 3 31 3 24 30 -4 15 -13 22 -30 22
-21 0 -24 -4 -21 -27z"/>
<path d="M5093 2682 c-13 -2 -23 -7 -23 -12 0 -24 15 -40 36 -40 19 0 24 5 24
24 0 29 -6 33 -37 28z"/>
<path d="M4427 2673 c-13 -3 -16 -11 -11 -31 9 -35 7 -34 38 -26 26 6 31 19
20 48 -6 16 -14 18 -47 9z"/>
<path d="M4974 2664 c-6 -3 -9 -16 -6 -29 3 -18 11 -25 26 -25 30 0 34 6 28
35 -4 24 -21 30 -48 19z"/>
<path d="M5749 2653 c-18 -5 -14 -53 5 -53 21 0 38 17 34 35 -3 20 -14 25 -39
18z"/>
<path d="M4860 2626 c0 -30 13 -40 41 -31 31 10 21 49 -13 53 -24 3 -28 0 -28
-22z"/>
<path d="M5648 2643 c-11 -3 -18 -14 -18 -29 0 -19 5 -24 25 -24 21 0 25 5 25
30 0 17 -3 29 -7 29 -5 -1 -16 -3 -25 -6z"/>
<path d="M5542 2632 c-17 -3 -22 -9 -20 -25 3 -22 34 -36 48 -20 4 4 4 17 1
28 -4 14 -13 19 -29 17z"/>
<path d="M4754 2614 c3 -9 6 -23 6 -31 0 -12 6 -14 27 -8 35 8 33 7 26 33 -4
16 -13 22 -35 22 -23 0 -29 -4 -24 -16z"/>
<path d="M4673 2612 c-16 -2 -23 -10 -23 -27 0 -29 13 -38 40 -30 13 4 20 15
20 30 0 28 -7 32 -37 27z"/>
<path d="M5418 2614 c-14 -13 6 -44 28 -44 19 0 24 5 24 25 0 20 -5 25 -23 25
-13 0 -26 -3 -29 -6z"/>
<path d="M5323 2603 c-18 -7 -16 -53 1 -53 31 0 43 11 38 36 -4 23 -14 28 -39
17z"/>
<path d="M4563 2593 c-25 -5 -26 -7 -17 -40 6 -23 28 -29 51 -15 11 7 6 63 -6
61 -3 -1 -16 -4 -28 -6z"/>
<path d="M5202 2568 c2 -17 11 -24 31 -26 23 -3 27 0 27 22 0 22 -4 26 -31 26
-26 0 -30 -3 -27 -22z"/>
<path d="M4463 2572 c-18 -3 -23 -10 -23 -33 0 -27 3 -30 28 -27 20 2 28 9 30
27 4 29 -6 38 -35 33z"/>
<path d="M5104 2574 c-6 -3 -9 -16 -6 -30 7 -36 46 -30 50 9 3 27 -12 34 -44
21z"/>
<path d="M4990 2537 c0 -31 5 -35 36 -29 36 7 30 46 -8 50 -24 3 -28 0 -28
-21z"/>
<path d="M4897 2543 c-11 -3 -16 -10 -13 -20 3 -8 6 -19 6 -24 0 -5 11 -9 25
-9 21 0 25 5 25 30 0 30 -5 33 -43 23z"/>
<path d="M5672 2532 c-17 -3 -22 -9 -20 -25 3 -22 34 -36 48 -20 4 4 4 17 1
28 -4 14 -13 19 -29 17z"/>
<path d="M4787 2523 c-4 -3 -7 -17 -7 -30 0 -19 5 -23 30 -23 30 0 37 11 24
44 -6 16 -35 22 -47 9z"/>
<path d="M5548 2495 c3 -18 11 -25 28 -25 19 0 24 5 24 25 0 21 -5 25 -29 25
-25 0 -28 -3 -23 -25z"/>
<path d="M4675 2500 c-12 -19 6 -50 29 -50 30 0 34 5 28 35 -3 18 -11 25 -28
25 -12 0 -26 -5 -29 -10z"/>
<path d="M5440 2485 c0 -20 5 -25 25 -25 20 0 25 5 25 25 0 20 -5 25 -25 25
-20 0 -25 -5 -25 -25z"/>
<path d="M5330 2486 c0 -31 11 -43 36 -38 25 5 28 10 18 36 -8 20 -54 21 -54
2z"/>
<path d="M4569 2485 c-4 -3 -4 -17 -1 -30 3 -20 10 -25 34 -25 26 0 29 3 26
28 -2 20 -9 28 -28 30 -14 2 -28 0 -31 -3z"/>
<path d="M5239 2483 c-27 -7 -12 -53 17 -53 20 0 24 5 24 30 0 29 -6 33 -41
23z"/>
<path d="M4460 2451 c0 -37 10 -49 35 -42 14 3 25 9 25 14 1 45 0 47 -30 47
-23 0 -30 -5 -30 -19z"/>
<path d="M5122 2443 c2 -23 7 -27 28 -25 31 5 30 4 23 30 -4 15 -13 22 -30 22
-21 0 -24 -4 -21 -27z"/>
<path d="M5021 2451 c-22 -14 -4 -51 25 -51 20 0 24 5 24 30 0 31 -19 40 -49
21z"/>
<path d="M4910 2410 c0 -31 19 -40 47 -22 21 13 4 52 -23 52 -20 0 -24 -5 -24
-30z"/>
<path d="M4823 2422 c-16 -2 -23 -10 -23 -27 0 -29 10 -36 38 -28 15 3 22 13
22 29 0 27 -7 31 -37 26z"/>
<path d="M5593 2413 c-34 -7 -32 -53 2 -53 21 0 25 5 25 30 0 17 -1 29 -2 29
-2 -1 -13 -4 -25 -6z"/>
<path d="M4707 2403 c-13 -3 -16 -11 -11 -31 4 -15 7 -28 8 -29 1 -1 14 1 29
4 19 4 26 10 23 20 -3 8 -6 21 -6 29 0 14 -10 16 -43 7z"/>
<path d="M5483 2402 c-17 -3 -23 -10 -23 -28 0 -20 5 -24 30 -24 30 0 35 10
22 40 -4 9 -17 14 -29 12z"/>
<path d="M4603 2383 c-13 -5 -18 -45 -8 -55 3 -3 17 -3 30 0 20 3 25 10 25 33
0 29 -15 36 -47 22z"/>
<path d="M5354 2374 c3 -9 6 -20 6 -25 0 -5 11 -9 25 -9 20 0 25 5 25 25 0 21
-5 25 -31 25 -24 0 -30 -3 -25 -16z"/>
<path d="M5250 2350 c0 -32 2 -33 36 -24 31 8 21 54 -12 54 -20 0 -24 -5 -24
-30z"/>
<path d="M5157 2363 c-30 -8 -18 -47 16 -51 26 -3 28 -1 25 24 -3 29 -12 34
-41 27z"/>
<path d="M5038 2345 c-7 -7 2 -55 11 -55 3 0 15 3 27 6 30 8 21 54 -10 54 -13
0 -25 -2 -28 -5z"/>
<path d="M4948 2333 c-11 -3 -18 -14 -18 -29 0 -20 5 -24 30 -24 19 0 30 5 30
14 0 20 -11 46 -19 45 -3 -1 -14 -3 -23 -6z"/>
<path d="M5502 2292 c-16 -2 -22 -8 -18 -19 3 -8 6 -19 6 -24 0 -5 11 -9 25
-9 20 0 25 5 25 24 0 29 -6 33 -38 28z"/>
<path d="M5398 2283 c-11 -3 -18 -14 -18 -29 0 -19 5 -24 25 -24 21 0 25 5 25
30 0 17 -3 29 -7 29 -5 -1 -16 -3 -25 -6z"/>
<path d="M5270 2247 c0 -31 5 -35 36 -29 36 7 30 46 -8 50 -24 3 -28 0 -28
-21z"/>
<path d="M2947 1953 c-15 -4 -17 -11 -12 -31 9 -34 8 -34 39 -26 28 7 29 8 20
42 -6 22 -12 24 -47 15z"/>
<path d="M3283 1949 c-42 -16 -22 -66 21 -55 22 5 26 11 20 29 -9 32 -16 36
-41 26z"/>
<path d="M2855 1918 c-11 -6 -21 -12 -23 -13 -1 -1 2 -14 7 -29 10 -23 13 -25
36 -14 19 9 24 16 19 32 -9 31 -17 36 -39 24z"/>
<path d="M3171 1911 c-10 -6 -11 -16 -5 -34 8 -23 11 -24 35 -14 22 10 25 16
18 35 -9 23 -25 28 -48 13z"/>
<path d="M3503 1910 c-20 -8 -21 -12 -12 -39 10 -27 13 -29 39 -20 24 9 27 14
21 36 -8 31 -17 35 -48 23z"/>
<path d="M2752 1879 c-19 -7 -22 -14 -16 -31 9 -30 8 -30 38 -22 21 5 25 10
20 28 -9 31 -16 35 -42 25z"/>
<path d="M3078 1883 c-19 -5 -23 -29 -10 -50 10 -15 52 -5 52 12 0 19 -11 45
-19 44 -3 -1 -14 -3 -23 -6z"/>
<path d="M3407 1878 c-22 -8 -26 -14 -21 -31 9 -32 16 -36 42 -26 22 8 26 21
14 50 -6 13 -13 14 -35 7z"/>
<path d="M3625 1860 c3 -5 11 -10 16 -10 6 0 7 5 4 10 -3 6 -11 10 -16 10 -6
0 -7 -4 -4 -10z"/>
<path d="M2648 1843 c-21 -5 -23 -23 -5 -46 10 -13 16 -14 33 -4 17 9 20 17
13 35 -8 22 -11 23 -41 15z"/>
<path d="M2964 1842 c-15 -9 0 -52 18 -52 26 0 40 17 33 39 -6 21 -30 27 -51
13z"/>
<path d="M3292 1842 c-9 -7 -10 -15 -3 -35 9 -22 14 -25 33 -18 13 4 23 13 22
20 -1 6 -2 18 -2 26 -2 16 -29 20 -50 7z"/>
<path d="M3615 1830 c-3 -5 -3 -21 1 -34 5 -22 10 -25 33 -20 34 9 33 7 25 38
-4 19 -13 26 -29 26 -13 0 -26 -4 -30 -10z"/>
<path d="M2873 1810 c-20 -8 -22 -12 -11 -35 9 -19 16 -24 32 -19 28 9 28 8
20 38 -7 28 -8 29 -41 16z"/>
<path d="M3197 1813 c-15 -4 -17 -11 -12 -31 9 -35 8 -34 38 -23 22 9 25 14
18 33 -9 24 -17 28 -44 21z"/>
<path d="M2543 1802 c-17 -11 -4 -52 16 -52 28 0 39 13 30 38 -9 23 -25 28
-46 14z"/>
<path d="M3517 1803 c-9 -9 -8 -35 1 -51 6 -9 16 -10 34 -3 20 8 25 15 21 35
-4 19 -12 26 -27 26 -13 0 -26 -3 -29 -7z"/>
<path d="M3103 1777 c-24 -11 -28 -23 -14 -46 6 -10 16 -11 34 -5 23 8 24 11
14 35 -10 23 -15 25 -34 16z"/>
<path d="M2772 1771 c-18 -11 -12 -45 8 -48 25 -5 40 11 33 35 -6 23 -19 27
-41 13z"/>
<path d="M3418 1773 c-21 -5 -21 -4 -9 -36 8 -19 15 -23 35 -20 26 5 31 18 20
47 -6 16 -14 18 -46 9z"/>
<path d="M2443 1762 c-15 -9 -6 -52 11 -51 31 2 43 14 35 37 -9 23 -25 28 -46
14z"/>
<path d="M2997 1743 c-15 -4 -17 -11 -12 -31 8 -34 7 -32 33 -25 12 3 22 11
22 18 0 19 -11 45 -19 44 -3 -1 -14 -3 -24 -6z"/>
<path d="M3323 1740 c-19 -8 -21 -13 -14 -32 6 -16 16 -22 32 -20 30 3 31 5
23 36 -7 28 -8 29 -41 16z"/>
<path d="M2669 1732 c-13 -5 -14 -13 -8 -30 7 -19 14 -22 31 -16 29 8 28 6 21
32 -5 23 -16 26 -44 14z"/>
<path d="M3642 1731 c-9 -5 -11 -17 -6 -35 6 -24 10 -27 33 -21 33 9 33 8 25
39 -6 26 -27 33 -52 17z"/>
<path d="M2341 1721 c-10 -7 -11 -13 -2 -30 13 -24 15 -25 42 -11 15 9 17 15
9 30 -11 21 -27 25 -49 11z"/>
<path d="M3222 1707 c-17 -8 -21 -16 -16 -31 9 -29 10 -29 39 -22 21 5 25 11
19 29 -9 32 -16 36 -42 24z"/>
<path d="M2891 1701 c-15 -10 -6 -51 12 -51 25 0 39 18 32 39 -7 22 -21 26
-44 12z"/>
<path d="M3541 1701 c-9 -6 -11 -18 -7 -35 6 -23 10 -25 34 -20 15 4 28 7 29
8 1 1 -1 13 -4 29 -5 28 -25 35 -52 18z"/>
<path d="M2563 1694 c-9 -4 -9 -11 -1 -30 9 -18 16 -23 32 -18 27 8 26 7 19
32 -5 21 -23 26 -50 16z"/>
<path d="M2248 1683 c-21 -5 -21 -8 -7 -34 7 -15 16 -18 32 -13 30 9 30 9 17
33 -11 22 -12 22 -42 14z"/>
<path d="M3117 1673 c-13 -3 -16 -10 -11 -26 9 -32 16 -36 41 -26 18 7 21 13
14 31 -9 24 -17 28 -44 21z"/>
<path d="M3448 1673 c-19 -5 -23 -29 -10 -50 4 -7 17 -10 30 -6 18 4 22 12 20
31 -3 27 -12 32 -40 25z"/>
<path d="M2785 1660 c-3 -6 -3 -19 0 -31 5 -15 12 -18 28 -13 29 9 30 9 22 33
-7 22 -39 29 -50 11z"/>
<path d="M2467 1653 c-9 -9 -8 -25 2 -42 13 -21 51 3 44 29 -5 19 -32 27 -46
13z"/>
<path d="M3022 1637 c-17 -8 -21 -15 -16 -31 9 -28 8 -28 38 -20 29 7 30 10
13 40 -10 18 -16 20 -35 11z"/>
<path d="M3344 1637 c-17 -9 -20 -17 -13 -34 15 -42 64 -23 53 20 -7 30 -10
31 -40 14z"/>
<path d="M2697 1628 c-16 -12 -14 -58 2 -58 21 0 40 27 35 48 -7 25 -13 27
-37 10z"/>
<path d="M3667 1633 c-14 -4 -17 -11 -13 -26 3 -12 6 -25 6 -29 0 -11 32 -10
49 1 9 6 11 18 7 35 -6 26 -13 28 -49 19z"/>
<path d="M2371 1611 c-13 -9 -7 -51 8 -51 19 0 42 27 35 43 -7 19 -21 21 -43
8z"/>
<path d="M2917 1599 c-13 -7 -16 -17 -11 -32 9 -29 8 -29 38 -18 23 9 25 13
14 36 -13 28 -15 29 -41 14z"/>
<path d="M3238 1603 c-21 -5 -21 -4 -8 -37 8 -21 13 -24 32 -17 13 4 23 13 22
20 -1 6 -2 18 -2 26 -2 15 -12 17 -44 8z"/>
<path d="M3568 1603 c-19 -5 -23 -29 -9 -51 11 -19 64 -5 57 15 -3 8 -6 21 -6
29 0 14 -10 16 -42 7z"/>
<path d="M2597 1588 c-16 -12 -14 -58 2 -58 21 0 40 27 35 48 -7 25 -13 27
-37 10z"/>
<path d="M3143 1569 c-19 -7 -21 -12 -14 -31 4 -13 13 -23 20 -22 6 1 18 2 27
3 11 1 14 7 9 24 -10 32 -17 36 -42 26z"/>
<path d="M3473 1569 c-42 -16 -23 -64 21 -53 21 5 25 10 20 28 -9 31 -16 35
-41 25z"/>
<path d="M2818 1563 c-20 -5 -23 -20 -9 -42 6 -9 18 -11 35 -7 23 6 24 9 14
31 -6 14 -14 24 -17 24 -3 -1 -14 -3 -23 -6z"/>
<path d="M2496 1547 c-15 -11 -17 -17 -7 -35 10 -18 15 -20 31 -12 21 11 24
19 14 44 -7 19 -15 20 -38 3z"/>
<path d="M3038 1533 c-21 -5 -21 -4 -8 -38 9 -23 12 -25 32 -14 32 16 31 15
18 38 -11 22 -12 22 -42 14z"/>
<path d="M3361 1531 c-9 -6 -11 -18 -7 -34 4 -19 11 -24 26 -20 26 7 33 18 25
43 -7 21 -22 25 -44 11z"/>
<path d="M3693 1533 c-25 -5 -26 -7 -17 -40 7 -24 47 -32 59 -12 8 12 -2 60
-13 58 -4 -1 -17 -4 -29 -6z"/>
<path d="M2717 1523 c-13 -3 -16 -10 -11 -26 9 -29 8 -29 37 -22 23 6 25 9 15
31 -6 13 -14 23 -17 23 -3 -1 -14 -3 -24 -6z"/>
<path d="M3263 1500 c-20 -8 -22 -12 -11 -35 9 -19 16 -24 32 -19 28 9 28 8
20 38 -7 28 -8 29 -41 16z"/>
<path d="M3593 1500 c-24 -10 -29 -26 -14 -49 13 -20 65 -6 57 15 -3 9 -6 22
-6 30 0 16 -6 16 -37 4z"/>
<path d="M2933 1492 c-7 -4 -10 -17 -6 -31 5 -19 10 -21 32 -16 34 9 35 10 21
34 -11 22 -27 26 -47 13z"/>
<path d="M2617 1483 c-13 -3 -16 -10 -11 -26 9 -30 9 -30 37 -21 20 8 23 13
16 32 -9 22 -11 23 -42 15z"/>
<path d="M2845 1458 c-11 -6 -21 -12 -23 -14 -2 -1 2 -12 8 -24 8 -16 17 -19
33 -14 30 9 30 9 15 37 -11 22 -16 24 -33 15z"/>
<path d="M3158 1463 c-21 -5 -22 -13 -5 -37 17 -23 62 -13 53 11 -3 8 -6 19
-6 24 0 9 -12 10 -42 2z"/>
<path d="M3482 1461 c-8 -5 -11 -17 -7 -34 6 -23 9 -24 34 -16 23 8 27 15 23
34 -4 25 -25 32 -50 16z"/>
<path d="M3064 1427 c-17 -10 -20 -17 -13 -36 6 -15 14 -21 25 -17 9 3 20 6
25 6 13 0 11 23 -3 43 -11 13 -17 14 -34 4z"/>
<path d="M3388 1433 c-19 -5 -23 -29 -10 -51 7 -9 15 -10 35 -3 24 9 26 13 15
36 -6 14 -14 24 -17 24 -3 -1 -14 -3 -23 -6z"/>
<path d="M3725 1432 c-30 -6 -37 -16 -26 -44 8 -20 15 -25 35 -21 16 3 26 12
25 22 -1 31 -14 47 -34 43z"/>
<path d="M2744 1417 c-17 -10 -20 -17 -13 -34 10 -26 18 -28 42 -10 13 10 14
16 4 34 -10 18 -15 20 -33 10z"/>
<path d="M3289 1397 c-22 -10 -25 -16 -18 -34 16 -42 67 -22 53 20 -8 23 -11
24 -35 14z"/>
<path d="M2963 1389 c-20 -7 -21 -11 -12 -33 9 -19 16 -23 32 -17 26 10 31 22
15 43 -10 12 -19 14 -35 7z"/>
<path d="M3602 1391 c-9 -5 -11 -17 -6 -35 5 -21 10 -25 28 -20 31 9 36 17 30
42 -6 22 -29 28 -52 13z"/>
<path d="M3183 1360 c-20 -8 -22 -12 -11 -35 9 -19 16 -24 32 -19 28 9 28 8
20 38 -7 28 -8 29 -41 16z"/>
<path d="M3507 1363 c-15 -4 -17 -11 -12 -31 9 -35 8 -34 38 -23 22 9 25 14
18 33 -9 24 -17 28 -44 21z"/>
<path d="M3413 1329 c-24 -9 -27 -17 -17 -43 7 -19 24 -20 47 -3 13 10 14 16
4 33 -9 17 -17 20 -34 13z"/>
<path d="M3081 1321 c-9 -6 -11 -18 -7 -35 6 -23 8 -24 32 -14 15 7 23 17 19
26 -3 7 -5 18 -5 23 0 11 -21 11 -39 0z"/>
<path d="M3727 1323 c-13 -3 -16 -11 -11 -31 9 -35 7 -34 38 -26 26 6 31 19
20 48 -6 16 -14 18 -47 9z"/>
<path d="M3301 1291 c-9 -6 -11 -18 -7 -34 4 -19 11 -24 26 -20 26 7 33 18 25
43 -7 21 -22 25 -44 11z"/>
<path d="M3627 1293 c-15 -4 -17 -11 -12 -31 9 -34 8 -34 39 -26 28 7 29 8 20
42 -6 22 -12 24 -47 15z"/>
<path d="M3532 1259 c-19 -7 -22 -14 -16 -31 9 -30 8 -30 38 -22 21 5 25 10
20 28 -9 31 -16 35 -42 25z"/>
<path d="M4844 1658 c3 -13 6 -26 6 -30 0 -11 48 -10 54 0 3 5 2 18 -1 30 -4
16 -13 22 -35 22 -27 0 -30 -3 -24 -22z"/>
<path d="M4758 1663 c-12 -3 -18 -14 -18 -35 0 -27 3 -30 23 -24 12 3 26 6 30
6 12 0 4 53 -8 56 -5 1 -18 0 -27 -3z"/>
<path d="M4635 1640 c-3 -5 -3 -21 1 -34 5 -22 10 -25 33 -20 14 4 27 7 28 8
1 1 -1 13 -4 29 -4 20 -11 27 -29 27 -12 0 -25 -4 -29 -10z"/>
<path d="M4528 1625 c-2 -3 -3 -19 0 -36 3 -21 9 -29 19 -25 8 3 21 6 29 6 9
0 14 11 14 30 0 26 -4 30 -28 30 -16 0 -31 -2 -34 -5z"/>
<path d="M4672 1543 c-20 -4 -23 -9 -17 -31 9 -35 8 -34 39 -26 18 4 25 11 22
21 -3 8 -6 21 -6 29 0 8 -3 13 -7 13 -5 -1 -19 -4 -31 -6z"/>
<path d="M4557 1523 c-13 -3 -16 -11 -11 -31 9 -35 7 -34 38 -26 21 5 26 12
26 35 0 29 -9 33 -53 22z"/>
<path d="M5811 1266 c-12 -13 -18 -27 -13 -30 5 -3 15 1 22 9 7 8 9 15 5 15
-4 0 -2 7 5 15 20 24 6 17 -19 -9z"/>
<path d="M1418 1203 c-8 -15 -3 -38 7 -38 6 0 15 -4 22 -8 6 -4 15 -3 18 3 5
8 11 8 20 0 10 -9 13 -7 11 5 -3 24 -22 39 -31 25 -5 -8 -12 -7 -25 5 -10 9
-20 13 -22 8z m49 -22 c8 8 13 7 18 -2 5 -7 4 -10 -3 -5 -6 3 -14 2 -17 -4 -5
-8 -11 -8 -19 -1 -7 6 -15 9 -18 6 -2 -3 -5 2 -5 10 0 13 2 13 17 0 12 -10 19
-12 27 -4z"/>
<path d="M5789 1193 c-13 -16 -12 -17 4 -4 16 13 21 21 13 21 -2 0 -10 -8 -17
-17z"/>
</g>
</svg>
